<?xml version="1.0" encoding="UTF-8" standalone="no"?>
<svg
   xmlns:dc="http://purl.org/dc/elements/1.1/"
   xmlns:cc="http://creativecommons.org/ns#"
   xmlns:rdf="http://www.w3.org/1999/02/22-rdf-syntax-ns#"
   xmlns:svg="http://www.w3.org/2000/svg"
   xmlns="http://www.w3.org/2000/svg"
   xmlns:sodipodi="http://sodipodi.sourceforge.net/DTD/sodipodi-0.dtd"
   xmlns:inkscape="http://www.inkscape.org/namespaces/inkscape"
   sodipodi:docname="velocidad_de_escape.svg"
   inkscape:version="1.0 (4035a4fb49, 2020-05-01)"
   id="svg8"
   version="1.1"
   viewBox="0 0 210 297"
   height="297mm"
   width="210mm">
  <defs
     id="defs2" />
  <sodipodi:namedview
     inkscape:window-maximized="1"
     inkscape:window-y="-8"
     inkscape:window-x="-8"
     inkscape:window-height="1017"
     inkscape:window-width="1920"
     showgrid="false"
     inkscape:document-rotation="0"
     inkscape:current-layer="g92096"
     inkscape:document-units="mm"
     inkscape:cy="240.51711"
     inkscape:cx="585.08099"
     inkscape:zoom="0.98994949"
     inkscape:pageshadow="2"
     inkscape:pageopacity="0.0"
     borderopacity="1.0"
     bordercolor="#666666"
     pagecolor="#ffffff"
     id="base" />
  <metadata
     id="metadata5">
    <rdf:RDF>
      <cc:Work
         rdf:about="">
        <dc:format>image/svg+xml</dc:format>
        <dc:type
           rdf:resource="http://purl.org/dc/dcmitype/StillImage" />
        <dc:title></dc:title>
      </cc:Work>
    </rdf:RDF>
  </metadata>
  <g
     id="layer1"
     inkscape:groupmode="layer"
     inkscape:label="Capa 1">
    <g
       transform="matrix(0.41331622,0,0,0.39585055,96.988446,50.356794)"
       id="g92096">
      <path
         id="path92110"
         d="M 8.1484718,169.28098 C -13.39158,164.48366 -30.19592,155.65752 -45.172239,141.27534 c -17.73156,-17.02811 -28.317017,-37.45812 -32.24794,-62.238763 -1.444056,-9.103358 -2.04499,-10.919558 -3.613015,-10.919558 -1.782308,0 -1.774319,-0.291368 0.152474,-5.560865 1.118333,-3.058475 2.589725,-9.374029 3.269759,-14.034563 3.163715,-21.682136 13.165525,-42.5447162 28.162135,-58.742846 15.498621,-16.740361 39.34433,-29.525058 60.804907,-32.600093 4.971739,-0.712389 5.845665,-1.181825 6.147179,-3.302012 0.343916,-2.418338 0.564504,-2.463719 10.243944,-2.107465 8.510569,0.313234 10.246555,0.697011 12.427335,2.747322 1.394178,1.310775 3.457439,2.38443 4.585023,2.385899 1.127584,0.0015 6.479879,1.189433 11.89399,2.639919 37.367082,10.010955 67.173958,40.50617171 76.679988,78.450764 3.38548,13.5136 3.39317,37.172246 0.0164,50.645681 -9.60947,38.34279 -39.289849,68.8145 -77.007371,79.06053 -11.118054,3.02025 -37.802828,3.89602 -48.1941596,1.58169 z m 46.6053412,-3.64457 c 37.87044,-9.84578 66.919347,-39.52775 76.462067,-78.128412 3.43694,-13.902543 3.21729,-36.16408 -0.49564,-50.234816 -7.71801,-29.2486062 -27.93127,-54.489112 -54.517379,-68.076415 -5.126322,-2.619898 -4.160257,-1.267673 1.43839,2.013354 6.59135,3.862792 19.76774,16.533371 25.397019,24.4220975 8.453,11.845826 17.3867,34.1659485 17.3867,43.4392655 0,3.496254 1.08024,5.742864 2.76136,5.742864 1.84032,0 1.84274,0.81118 0.0179,5.983323 -0.80167,2.272182 -2.01274,8.302941 -2.69126,13.401692 -0.67852,5.098752 -2.2014,12.475043 -3.38419,16.391767 -2.40019,7.948054 -10.22362,24.59832 -11.55798,24.59832 -0.47368,0 -1.94813,1.78742 -3.27656,3.97205 -11.563774,19.01676 -30.807723,33.57592 -51.777277,39.17251 -10.562274,2.81897 -32.752639,2.52466 -44.4869158,-0.59004 -12.9051989,-3.42549 -16.4243052,-4.96087 -26.1011432,-11.3879 -14.346232,-9.52827 -23.315262,-21.48128 -29.960869,-39.928795 -4.769215,-13.23884 -6.233705,-34.814487 -3.251696,-47.905684 0.796208,-3.495401 1.364845,-6.697506 1.263638,-7.115791 -0.339479,-1.403061 7.013354,-16.581293 10.515766,-21.707381 4.712965,-6.897839 14.085035,-16.6821041 20.654097,-21.5624895 9.042906,-6.7182914 24.32102,-13.7211515 34.285756,-15.7151845 8.981408,-1.797259 8.995241,-1.805114 9.601598,-5.451541 0.33398,-2.008428 1.172135,-4.692805 1.862561,-5.965282 0.690427,-1.272476 1.255326,-3.29822 1.255326,-4.501652 0,-1.846594 -0.661192,-2.188059 -4.236849,-2.188059 -3.813165,0 -4.23685,-0.264803 -4.23685,-2.648031 0,-3.175871 -1.102219,-3.278287 -11.5741616,-1.075445 -38.5892404,8.117497 -69.6062024,38.61040833 -79.4226484,78.080754 -2.748679,11.051996 -2.983708,18.237602 -0.768135,23.48441 2.218864,5.254604 2.178968,5.96112 -0.336619,5.96112 -1.863163,0 -2.010708,0.552072 -1.486188,5.560865 0.952588,9.096558 4.38379,22.632338 7.84417,30.944546 7.112253,17.0844 22.963853,36.26755 38.405784,46.47757 12.084788,7.99032 29.24802436,14.65669 43.630555,16.94655 8.153351,1.29811 31.91896,-0.10647 40.779674,-2.41014 z M 114.02619,82.282173 c 1.72115,-5.316918 3.58988,-13.376411 4.15272,-17.909988 0.89235,-7.187561 0.76262,-8.904375 -1.01332,-13.409954 -2.44648,-6.206766 -2.44219,-6.147883 -0.44786,-6.147883 3.3935,0 0.41618,-16.202106 -5.61527,-30.557371 -9.27717,-22.0803402 -31.055368,-42.68776 -53.817035,-50.923897 -8.908409,-3.223439 -14.099619,-3.927062 -9.055153,-1.227349 1.36076,0.728261 4.340197,3.010004 6.620967,5.070542 3.30291,2.983978 4.450259,3.494633 5.637657,2.509176 1.75162,-1.453709 1.903352,-1.24068 4.260046,5.980744 2.716234,8.323112 8.626416,17.5324153 14.175512,22.0884052 19.88991,16.3302788 31.061376,35.6146738 34.116506,58.8925178 1.33562,10.176404 0.14558,24.649852 -2.68684,32.67777 -1.82768,5.180205 -1.98024,6.458939 -0.50268,4.213229 0.57495,-0.87385 2.45359,-5.939025 4.17475,-11.255942 z M 66.77315,-14.498886 c -1.076255,-1.826905 -4.487025,-4.770673 -7.57949,-6.541707 -5.264688,-3.015039 -5.514376,-3.339738 -3.921638,-5.099694 1.58546,-1.75191 1.39476,-2.141806 -2.806447,-5.737883 -5.946693,-5.090143 -11.275971,-8.17476 -12.026222,-6.960836 -0.33218,0.537473 -2.52137,1.493532 -4.864888,2.124574 l -4.260925,1.147348 0.654106,6.031119 c 1.185735,10.932842 0.803412,10.414126 8.203292,11.129909 7.801903,0.75467 20.137077,3.89629 24.645391,6.276886 1.747701,0.922864 3.343234,1.514584 3.545639,1.314933 0.202405,-0.199652 -0.512563,-1.857744 -1.588818,-3.684649 z M 37.971007,-44.418583 c -0.752952,-0.752955 -4.931968,-1.482413 -9.744753,-1.700973 -7.189827,-0.326508 -8.426447,-0.13304 -8.426447,1.318308 0,1.438564 1.503329,1.700973 9.744753,1.700973 7.773305,0 9.478043,-0.266706 8.426447,-1.318308 z"
         style="fill:#b2d8fd;stroke-width:1.05921" />
      <path
         id="path92108"
         d="m 9.5616061,169.29222 c -21.2396311,-3.85386 -40.1834981,-13.88186 -56.0208051,-29.6548 -9.965124,-9.92463 -16.062503,-18.54999 -21.862314,-30.92647 -4.290403,-9.155482 -9.314992,-26.649284 -9.340674,-32.520848 -0.02145,-4.904131 -1.103706,-8.073083 -2.757105,-8.073083 -1.913572,0 -1.861304,-0.635718 0.653144,-7.944092 1.165133,-3.386525 2.118424,-7.689831 2.118424,-9.562915 0,-5.641436 4.857987,-22.992962 8.866447,-31.668747 10.181117,-22.0356932 28.163713,-40.764408 49.390229,-51.439485 9.473989,-4.764586 23.2852709,-9.273312 31.287193,-10.213782 5.182979,-0.609157 5.785237,-0.940426 5.785237,-3.182138 0,-2.430594 0.253407,-2.502197 8.855492,-2.502197 7.593524,0 9.387767,0.361205 12.590507,2.534648 2.054257,1.394056 5.814779,2.877993 8.356708,3.297637 15.4273,2.546874 34.762627,11.431659 48.058855,22.083546 18.552526,14.8628116 31.094896,34.282346 37.301496,57.754443 2.23304,8.44489 2.71121,12.726128 2.7942,25.017414 0.10243,15.175505 -0.84681,21.929392 -4.83837,34.424401 -10.09937,31.614558 -35.996635,57.788568 -68.135582,68.863718 -14.737763,5.07867 -36.997809,6.63499 -53.1030819,3.71275 z M 57.019012,165.18796 C 69.518956,161.46757 76.887833,158.06397 86.971481,151.35329 135.64684,118.95973 148.68847,53.72334 116.31622,4.5659733 107.99281,-8.0731594 91.093924,-23.336208 78.321286,-29.751007 c -6.692569,-3.361206 -7.312177,-2.926923 -1.059212,0.742402 6.460644,3.791195 18.172058,14.832186 24.307556,22.9160721 9.76498,12.8659491 18.82251,35.6753729 18.84792,47.4644409 0.006,2.733825 0.44349,3.44244 2.12585,3.44244 2.51118,0 2.59491,0.70343 0.64653,5.431509 -0.80953,1.964488 -2.00725,7.654869 -2.66158,12.645284 -0.65432,4.990415 -2.14714,12.528565 -3.31735,16.751443 -3.01634,10.884805 -12.67421,29.620066 -12.67421,24.586626 0,-0.5969 1.63386,-4.0807 3.6308,-7.741803 4.70398,-8.624054 7.59454,-17.427273 9.6686,-29.445743 1.71893,-9.960663 1.59668,-11.103627 -2.17895,-20.373694 -0.56648,-1.390823 -0.23781,-1.853622 1.31642,-1.853622 1.92535,0 2.00463,-0.429417 1.12445,-6.090471 -1.72901,-11.120439 -4.08857,-18.701759 -8.81935,-28.336743 -10.975699,-22.353762 -31.067643,-40.202492 -53.763416,-47.760878 -4.570702,-1.522185 -8.490222,-2.587758 -8.710041,-2.367939 -0.219818,0.219817 2.459618,2.687663 5.954309,5.4841 4.925676,3.941507 6.674722,4.818242 7.780836,3.900251 1.141513,-0.947376 1.791319,-0.06289 3.24943,4.42297 1.92067,5.908934 7.887764,16.7413885 11.353591,20.6109295 2.044725,2.2829044 2.04142,2.3014586 -0.734934,4.1205944 l -2.788906,1.82736261 3.208025,2.23468059 c 3.719456,2.5909351 4.512933,4.4976136 4.897162,11.7675919 0.153946,2.912834 0.32879,5.534384 0.388551,5.825667 0.05974,0.291284 0.962199,-0.579929 2.005428,-1.936029 1.668736,-2.169193 2.057838,-2.271577 3.236338,-0.851573 1.995503,2.404438 4.242485,13.238076 3.585445,17.286949 -0.737106,4.542216 1.534904,15.966989 3.857111,19.395448 3.026031,4.467577 1.699093,29.396553 -1.860549,34.954007 -0.93287,1.456417 -2.425215,4.044083 -3.316341,5.750379 -0.891126,1.706285 -2.917526,4.053362 -4.503124,5.215715 l -2.882911,2.11339 -6.120394,-6.484881 C 62.051584,83.114735 60.049874,80.263494 60.049874,75.86234 c 0,-5.248916 -4.169123,-11.482879 -9.040769,-13.518378 -2.015776,-0.842243 -4.200063,-2.705599 -4.853978,-4.140778 -0.991327,-2.175739 -2.064849,-2.669004 -6.459066,-2.967882 -2.898577,-0.19714 -5.507798,0.02627 -5.798266,0.496559 -0.290478,0.470238 -3.438393,2.972627 -6.995387,5.560865 -7.034653,5.118739 -10.078316,5.703805 -16.252451,3.124083 -2.08216,-0.869984 -4.2202107,-1.313275 -4.7512235,-0.985089 -1.4442063,0.892567 -9.4015969,-5.803879 -9.4015969,-7.911807 0,-1.004833 -0.6998089,-2.752203 -1.5551323,-3.883041 -0.8553224,-1.130838 -1.5702907,-3.470069 -1.5888184,-5.198293 -0.041365,-3.858549 2.8625371,-12.000843 5.3012982,-14.864385 0.9922965,-1.165134 2.11913526,-4.2008 2.5040858,-6.745926 0.5819292,-3.84746 0.4331554,-4.525139 -0.88258224,-4.020243 -1.69417506,0.650116 -5.89727566,-3.837784 -5.89727566,-6.296872 0,-0.780325 1.4299366,-2.158223 3.1776369,-3.061993 1.74770027,-0.903771 3.17763686,-2.1076252 3.17763686,-2.6752317 0,-1.0143928 -0.51882231,-1.1210163 -6.88487986,-1.414917 -2.4920395,-0.1150495 -3.254845,-0.6928032 -3.5354865,-2.6777979 -0.3030004,-2.1431445 -0.00392,-2.4385493 1.9511188,-1.9272887 2.1442016,0.5607216 2.1886335,0.47084 0.6226527,-1.2595496 -3.0602999,-3.3815926 -1.0685344,-7.0557533 2.1047099,-3.8825089 0.9109935,0.9109936 2.5755965,1.65635175 3.6991189,1.65635175 2.3428059,0 2.4631526,0.41298053 0.94628644,3.24727065 -0.60306357,1.1268356 -0.85251014,2.048791 -0.5543271,2.048791 0.47013244,0 4.82844356,-8.3062583 4.82844356,-9.2022556 0,-0.1818604 -0.953291,-0.3306553 -2.1184246,-0.3306553 -1.68720332,0 -2.11512297,-0.7007347 -2.10220481,-3.4424401 0.008897,-1.8933416 0.39351854,-4.0366036 0.8546625,-4.7628026 1.01395111,-1.596746 9.26661721,-4.065065 16.87092331,-5.045982 5.130274,-0.661779 5.561373,-0.935178 5.56739,-3.530764 0.0032,-1.547391 0.718559,-4.178698 1.588818,-5.847349 0.870259,-1.66865 1.582294,-4.171039 1.582294,-5.560864 0,-2.241974 -0.477822,-2.526956 -4.236849,-2.526956 -3.962192,0 -4.23685,-0.197744 -4.23685,-3.050384 v -3.050385 l -8.2088949,1.544948 c -32.0826231,6.038081 -60.0827621,27.073004 -74.8174081,56.206093 -7.495638,14.820246 -12.47954,37.21973 -9.760158,43.865736 2.99019,7.307844 3.073637,8.2868 0.70637,8.2868 -2.55718,0 -2.517336,-0.389748 -1.043466,10.206994 5.609357,40.329777 34.716032,74.304337 73.8384559,86.187407 11.8383001,3.59577 16.6938921,4.13913 33.5844671,3.75821 13.295265,-0.29983 17.381452,-0.80275 25.038264,-3.08167 z M 0.47987967,145.90786 C -7.0042803,144.09388 -12.348312,141.43198 -22.388857,134.51675 -35.161696,125.7197 -42.866973,115.17844 -49.600088,97.290195 c -2.966812,-7.882097 -3.197126,-9.429267 -1.302525,-8.749931 0.728208,0.261106 2.203116,0.02171 3.277572,-0.532095 1.467972,-0.756564 2.538071,-0.457707 4.305117,1.202343 1.293357,1.215044 3.583716,2.209178 5.089686,2.209178 1.50597,0 5.21715,1.66826 8.247067,3.707243 4.615014,3.105675 6.442511,3.707244 11.262189,3.707244 10.045413,0 16.8281869,4.545313 14.1764977,9.500043 -0.8583517,1.60384 -0.6347245,2.98379 0.9681942,5.9745 1.6828076,3.13975 1.9670938,5.14459 1.4756945,10.40688 -0.6974478,7.4688 1.2949824,12.61363 6.9744247,18.00925 5.3652289,5.09712 4.898449,5.43527 -4.39394943,3.18301 z M 99.365536,71.093321 c -1.35093,-3.553212 -0.653534,-18.539949 0.952804,-20.475469 0.95774,-1.154014 1.77139,-1.250195 3.36431,-0.397693 1.89115,1.012116 2.02199,1.77704 1.30964,7.657031 -0.43526,3.592922 -0.83497,7.826626 -0.88825,9.408242 -0.0533,1.581605 -0.9114,3.689893 -1.90694,4.685097 -1.70713,1.706507 -1.86821,1.656608 -2.831564,-0.877208 z M -50.766085,39.122665 c 0.904349,-3.603217 6.482227,-15.621763 8.419154,-18.140594 1.071652,-1.393604 1.974912,-1.756014 2.639947,-1.059213 1.524888,1.597728 -2.036529,11.160745 -5.405995,14.516023 -1.582241,1.575579 -2.876801,3.550326 -2.876801,4.38833 0,0.838002 -0.767992,1.818346 -1.70665,2.178543 -1.366441,0.524353 -1.57967,0.148971 -1.069655,-1.883089 z m 18.280238,-27.967922 c -0.789891,-1.2780719 2.760313,-5.2241833 5.41551,-6.0194293 3.1712,-0.9497915 3.20878,1.7549601 0.06508,4.6837659 -2.397153,2.2332874 -4.594813,2.7688754 -5.480588,1.3356634 z m 41.902859,4.266463 c 0.763764,-1.019492 2.996939,-2.985622 4.962611,-4.369178 3.198973,-2.2516279 4.291065,-2.4420859 10.408936,-1.8152917 4.43095,0.4539646 6.606212,0.3300982 6.18455,-0.352168 -0.729924,-1.1810429 3.01974,-3.2435189 9.746141,-5.3607975 2.475908,-0.779344 4.501652,-2.0308712 4.501652,-2.78117166 0,-1.06070264 -0.71858,-1.11368444 -3.2301,-0.23816071 C 40.214238,1.1237493 37.296246,1.3375693 35.506368,0.97959366 32.632069,0.40473371 32.413786,0.52361653 33.637102,1.9976259 35.807121,4.6123392 32.961367,5.7038406 28.660001,3.9066146 25.301006,2.5031361 25.095868,2.5401704 25.095868,4.550065 c 0,2.2457324 -1.538145,2.8692504 -2.64803,1.0734269 -0.360048,-0.5825668 -3.021524,-1.0592123 -5.914396,-1.0592123 -4.554868,0 -5.387331,0.3355203 -6.211622,2.5035701 -0.5235202,1.3769644 -1.7033376,2.7919418 -2.6218145,3.1443943 -1.0122786,0.388448 -1.6699583,1.905363 -1.6699583,3.851703 0,3.602862 1.3110506,4.12824 3.3869648,1.357259 z m 63.343409,0.378127 c 0,-0.228955 -0.739722,-0.700141 -1.643833,-1.04708 -0.942615,-0.361717 -1.367782,-0.184143 -0.996698,0.416282 0.622033,1.006468 2.640531,1.488668 2.640531,0.630798 z m -4.236849,-2.194481 c 0,-0.270787 -1.072452,-1.01205 -2.383227,-1.647251 -2.288566,-1.109038 -2.301552,-1.089481 -0.327159,0.492339 2.161068,1.731375 2.710386,1.965442 2.710386,1.154912 z M 36.008467,-5.8215504 c 0.894812,-1.1295239 0.578033,-1.1468696 -1.731039,-0.094778 -1.554458,0.7082529 -2.826286,1.6481523 -2.826286,2.0886618 0,1.3307467 2.617865,1.8052738 3.055054,0.5537753 0.223865,-0.6408235 0.899886,-1.7872694 1.502271,-2.5476591 z M 12.385321,-7.1480243 c 0,-1.7963319 -2.005266,-2.0192993 -3.6218494,-0.4027157 -2.2206513,2.2206514 -2.13548,2.3765198 0.9738186,1.7821396 1.4564168,-0.2784118 2.6480308,-0.8991526 2.6480308,-1.3794239 z m 54.639371,-7.0276217 c -1.494231,-2.257933 -5.093816,-5.4936 -7.999087,-7.190371 -4.744837,-2.771134 -5.124427,-3.259504 -3.730556,-4.799707 1.382696,-1.527871 1.178109,-2.0663 -1.877973,-4.942377 -1.886341,-1.775239 -5.275492,-4.449206 -7.531434,-5.942152 -3.774842,-2.498131 -4.365702,-2.600287 -7.414486,-1.281922 -1.822025,0.787889 -4.176135,1.701901 -5.231354,2.031138 -1.713011,0.534478 -1.840212,1.422277 -1.187154,8.286221 0.402288,4.228184 0.893371,7.975643 1.091306,8.327688 0.197935,0.352045 3.331858,0.950716 6.964268,1.330378 8.435164,0.881649 21.876314,4.498063 25.861017,6.958046 1.69617,1.04714 3.238807,1.7744034 3.428088,1.6161412 0.189281,-0.1582633 -0.878405,-2.1351512 -2.372635,-4.3930832 z M 37.953879,-44.194727 c -1.990058,-1.657885 -4.098473,-2.083185 -10.327319,-2.083185 -7.120608,0 -7.826753,0.191128 -7.826753,2.118425 0,1.975984 0.694398,2.116055 10.32732,2.083185 l 10.32732,-0.03524 z"
         style="fill:#99a4ec;stroke-width:1.05921" />
      <path
         id="path92106"
         d="m 14.063906,169.76096 c -23.7216084,-3.73426 -43.878647,-13.8684 -60.353583,-30.34334 -17.57205,-17.57205 -29.130211,-41.267991 -31.017079,-63.589609 -0.555103,-6.566863 -0.94308,-7.710992 -2.614817,-7.710992 -2.391835,0 -2.43001,-0.741999 -0.3004,-5.838876 0.914429,-2.188534 2.332822,-8.443871 3.151984,-13.900741 6.892211,-45.9126846 42.035127,-82.396031 87.131859,-90.455266 6.998671,-1.250732 7.619512,-1.572211 7.619512,-3.945467 0,-2.573427 0.03787,-2.582301 9.446024,-2.213592 7.77984,0.304894 10.016144,0.791937 12.678146,2.761169 1.777655,1.315038 6.48043,3.074283 10.450602,3.909433 19.703286,4.144716 37.367929,13.496414 51.990236,27.52374 10.34268,9.9218385 16.20777,17.8058874 22.28755,29.959669 16.56997,33.124165 14.43272,74.246281 -5.45,104.861692 -16.01963,24.66701 -40.182153,41.60748 -67.78049,47.52128 -9.451648,2.0253 -28.826018,2.78536 -37.239544,1.4609 z m 36.453057,-2.63174 c 38.439927,-8.14652 68.622857,-36.50387 80.019847,-75.179924 3.99545,-13.558701 4.76454,-34.910176 1.77409,-49.253373 -6.76816,-32.462561 -27.70172,-59.777871 -57.132043,-74.549138 -8.445396,-4.238802 -8.049367,-3.326963 1.101507,2.536179 14.459233,9.264302 25.409776,21.1068093 33.460636,36.1861447 4.90237,9.1821863 9.43402,23.0989893 10.33807,31.7485103 0.53302,5.099724 0.996,6.196729 2.61522,6.196729 2.37098,0 2.42912,0.754978 0.42713,5.546414 -0.84722,2.027684 -2.05589,7.835028 -2.68594,12.905224 -1.36235,10.963303 -5.27221,23.892228 -10.17186,33.635764 -3.22226,6.40785 -5.72683,9.7289 -5.72683,7.59374 0,-0.45045 1.859,-4.4109 4.13112,-8.80102 5.07441,-9.804652 8.08386,-19.399643 9.63273,-30.711914 1.06955,-7.811543 0.97783,-9.156976 -0.98107,-14.39264 -2.11605,-5.655609 -2.11862,-5.775568 -0.12396,-5.775568 1.74971,0 1.95603,-0.560148 1.46309,-3.972046 -4.88405,-33.8045922 -24.893813,-61.194569 -54.772476,-74.974285 -7.620524,-3.514503 -22.080434,-7.82412 -18.263902,-5.443354 1.094633,0.682835 4.569876,3.309386 7.72277,5.836781 4.47603,3.588045 6.049214,4.332435 7.177371,3.396152 1.165101,-0.966951 1.7994,-0.113515 3.276186,4.408042 1.997134,6.114754 7.943011,17.003802 11.221507,20.5506402 2.054628,2.2227867 2.05127,2.2412837 -0.737022,4.0682481 L 71.48209,0.51983514 74.831616,3.3364671 c 2.117344,1.780483 3.706957,4.3752312 4.321141,7.0534799 1.36971,5.972797 1.264572,6.88488 -0.793647,6.88488 -1.701847,0 -1.703923,0.111868 -0.03294,1.782822 1.67095,1.670954 1.918869,1.659697 3.951063,-0.179409 2.112239,-1.911554 2.20796,-1.909725 3.706523,0.0708 0.846056,1.118167 1.553441,3.074453 1.571977,4.347304 0.01854,1.272851 0.486295,3.50472 1.039479,4.959709 0.593148,1.560116 0.630549,3.953838 0.0912,5.834622 -1.121589,3.910734 1.401063,16.102042 4.332581,20.938187 1.536313,2.534473 1.780419,3.955321 1.022203,5.949606 -0.596315,1.568418 -0.6227,4.270702 -0.06578,6.732873 0.868766,3.840576 0.621948,7.207145 -0.806272,10.997801 -0.329246,0.87385 -0.501431,2.601871 -0.38263,3.840037 0.219543,2.288216 -5.118379,13.171972 -8.116829,16.549801 -2.795653,3.14937 -5.78261,2.13579 -11.00745,-3.735239 -2.708141,-3.043074 -6.916212,-7.771673 -9.351266,-10.50799 -2.818035,-3.166684 -4.354528,-5.861829 -4.226967,-7.414486 0.43666,-5.315117 -0.164591,-7.28075 -3.32974,-10.885652 -1.812609,-2.064447 -4.450799,-4.043458 -5.862645,-4.397807 -1.411845,-0.354349 -3.252205,-1.96933 -4.089682,-3.588834 -1.277293,-2.47002 -2.3382,-3.015281 -6.5831,-3.383421 -5.324829,-0.461795 -6.100575,-0.08961 -14.810404,7.1058 -3.15551,2.606849 -4.770236,3.163645 -8.989293,3.099743 -2.828572,-0.0429 -5.703612,-0.638652 -6.388978,-1.324016 -0.6854075,-0.685361 -2.474542,-1.246119 -3.9758981,-1.246119 -3.6253596,0 -9.5571253,-5.470471 -9.5571253,-8.813896 0,-1.417929 -0.7149683,-3.17142 -1.5888184,-3.896651 -0.8738502,-0.725231 -1.5888185,-2.243131 -1.5888185,-3.373112 0,-3.35495 3.3455602,-12.880749 5.3254408,-15.163104 1.01072054,-1.165134 2.06514413,-3.548361 2.343163,-5.296062 0.2780178,-1.7477 0.8488718,-3.976989 1.2685645,-4.953975 C 2.8738636,19.887412 2.5720824,19.664886 0.67811549,20.16017 -1.0043352,20.60014 -2.2139503,20.056579 -3.6188493,18.229265 -6.4273951,14.576256 -6.099659,13.231825 -1.914045,11.235844 2.2095596,9.2694342 2.9041783,7.7419166 -0.32522653,7.7419166 -2.5113994,7.7419166 -3.1874925,6.2082343 -1.4694078,5.1463994 -0.93357452,4.8152356 0.70113111,2.4038783 2.1632699,-0.21217379 L 4.8217052,-4.9686313 H 2.2482399 c -2.69602789,0 -3.2667368,-2.0748339 -1.93546792,-7.0364597 0.64407946,-2.400478 7.42758952,-4.787102 17.49996902,-6.156967 4.812123,-0.65446 4.908215,-0.743685 5.49254,-5.100099 0.327095,-2.438694 1.10211,-4.603119 1.722258,-4.809834 0.620147,-0.206715 1.127542,-1.975613 1.127542,-3.930883 0,-3.343456 -0.236395,-3.574601 -3.972046,-3.883779 -3.44846,-0.285407 -4.016226,-0.712705 -4.307205,-3.241576 -0.184337,-1.602058 -0.499892,-2.912834 -0.701232,-2.912834 -0.20134,0 -3.863683,0.674781 -8.1385402,1.499513 -41.8351828,8.071105 -74.9907408,40.85415237 -83.6244428,82.684899 -2.483034,12.030432 -2.474219,13.601784 0.114515,20.412805 l 2.113573,5.560865 h -2.260379 c -2.145131,0 -2.224886,0.346437 -1.564249,6.794635 3.633487,35.464906 25.81893,67.117886 58.60691,83.617146 9.0587127,4.55844 23.3635028,8.88643 33.670579,10.18724 8.999555,1.13578 25.073896,0.39482 34.424399,-1.58682 z M 1.0323775,145.83481 C -14.866004,142.5106 -33.716972,128.31794 -42.061833,113.38972 c -3.742094,-6.69426 -10.58664,-22.968051 -9.930316,-23.610591 0.162319,-0.158913 1.993954,-0.606187 4.070298,-0.993954 2.790641,-0.521154 4.13657,-0.269559 5.160953,0.964752 0.76218,0.918369 2.30438,1.669763 3.427112,1.669763 2.358761,0 7.945027,2.664068 10.750178,5.126715 1.223565,1.074179 5.034976,1.960528 10.420665,2.423361 10.3089171,0.885926 14.1510042,3.484704 13.1376589,8.886294 -0.3865118,2.06029 0.08318,4.57293 1.3015654,6.96271 1.4524809,2.84896 1.757319,5.11075 1.280469,9.50065 -0.7439165,6.84849 1.3181272,12.06264 7.1927601,18.18782 2.0850054,2.17394 3.5835673,4.12184 3.3301369,4.32868 -0.2534303,0.20683 -3.4247013,-0.24366 -7.0472698,-1.00111 z M 99.013411,69.872833 c -0.495224,-2.59059 -0.202214,-12.025746 0.515032,-16.584786 0.442824,-2.814669 2.495687,-3.770099 4.846627,-2.255682 1.16278,0.749036 1.20807,2.330896 0.24458,8.540793 -0.65039,4.191822 -0.89406,8.08823 -0.5415,8.65869 0.79452,1.285545 -1.44521,4.12202 -3.25482,4.12202 -0.73461,0 -1.549067,-1.116473 -1.809919,-2.481035 z M -51.167416,40.117709 c 0,-1.578616 6.083351,-14.429288 8.190489,-17.30186 3.02246,-4.120392 5.202139,-3.577181 2.9696,0.740073 -0.84848,1.640778 -1.305532,3.220393 -1.015671,3.510254 0.864885,0.864885 -1.909814,6.096836 -3.233379,6.096836 -0.672441,0 -2.018158,1.66826 -2.990481,3.707244 -0.972324,2.038983 -2.252218,3.707243 -2.844209,3.707243 -0.591993,0 -1.076349,-0.206906 -1.076349,-0.45979 z m 19.234434,-29.78412 c 0.434278,-2.2105975 5.846006,-6.4630352 6.892802,-5.416239 0.407445,0.4074461 -0.231074,2.0437862 -1.418934,3.6363109 -2.563143,3.4363211 -6.020103,4.5604141 -5.473868,1.7799281 z M -8.9826929,5.9316719 C -9.8964192,4.830699 -9.8599431,4.1618191 -8.8334742,3.1953726 c 1.0625286,-1.0003974 1.4643514,-0.9906156 1.8440367,0.04489 0.2670104,0.7282084 0.9548544,1.3240154 1.5285439,1.3240154 0.5736885,0 -0.00127,-1.4666596 -1.2777161,-3.259244 -2.4814643,-3.4848933 -1.5089104,-6.790051 1.080065,-3.6705256 0.7457225,0.8985404 2.2226574,1.63371005 3.2820773,1.63371005 3.1209383,0 3.3010637,1.72936114 0.5238928,5.02984025 -2.8287176,3.3617392 -5.2378154,3.913699 -7.1301183,1.6336132 z M 9.910446,14.557508 c 0.320704,-0.835742 1.173196,-1.51953 1.894428,-1.51953 0.721231,0 2.219333,-1.008373 3.329116,-2.240829 1.81119,-2.0113978 2.75711,-2.1726374 9.238638,-1.5748084 4.72612,0.4359167 6.993788,0.2986152 6.56362,-0.3974133 C 30.238291,7.6956152 34.428387,5.6078484 41.691215,3.4661264 44.528961,2.6293073 45.918584,1.6769769 45.581956,0.79973729 45.182749,-0.24056809 44.309926,-0.30401491 41.909497,0.53278083 40.177653,1.1365033 37.404741,1.3592683 35.747466,1.0278132 33.147979,0.50791688 32.808554,0.70933776 33.275445,2.4947238 33.88768,4.8359315 33.350861,4.9612194 28.575233,3.5916007 25.626671,2.7459658 25.093665,2.9025915 24.494374,4.7907646 24.10523,6.0168516 23.508194,6.482261 23.123329,5.8595363 22.748368,5.252847 20.298092,4.6690209 17.67826,4.5621442 10.658515,4.2757724 10.266896,4.3809967 10.266896,6.55351 c 0,1.0940763 -0.9928893,2.6484841 -2.2064204,3.454239 -1.3407308,0.890211 -2.2975776,2.781702 -2.4387569,4.820917 -0.2056439,2.97037 -0.00614,3.234847 1.7366464,2.30214 1.0829397,-0.579571 2.2313758,-1.737556 2.5520809,-2.573298 z m 64.880136,2.376216 c -2.352955,-1.818556 -10.613392,-5.9891 -10.046893,-5.072494 0.790818,1.279574 7.900728,5.288845 9.517287,5.366785 0.534012,0.02575 0.772335,-0.106684 0.529606,-0.294291 z M 55.813025,8.3340343 c 0,-0.2569025 -0.476646,-0.7616775 -1.059212,-1.1217239 C 54.171246,6.852264 53.6946,7.0624573 53.6946,7.679405 c 0,0.6169478 0.476646,1.1217239 1.059213,1.1217239 0.582566,0 1.059212,-0.2101922 1.059212,-0.4670946 z M 23.189286,1.1748001 c -0.988594,-0.98859778 -1.553515,-0.98859778 -2.542109,0 -0.988598,0.9885979 -0.706145,1.2710548 1.271055,1.2710548 1.977199,0 2.259649,-0.2824569 1.271054,-1.2710548 z m 8.261856,-1.31446445 c 0,-0.25690242 -0.476645,-0.76167746 -1.059212,-1.12172385 -0.582567,-0.3600464 -1.059212,-0.1498531 -1.059212,0.46709462 0,0.61694775 0.476645,1.12172386 1.059212,1.12172386 0.582567,0 1.059212,-0.21019221 1.059212,-0.46709463 z M 35.440898,-4.319707 c 1.02214,-2.2433461 0.919926,-2.4679828 -0.9057,-1.9905703 -2.45124,0.6410141 -3.455776,2.0016878 -2.55445,3.4600706 1.064011,1.7216045 2.232237,1.2254652 3.46015,-1.4695003 z m -24.02816,-1.7081367 c 0.534921,0 0.972583,-0.7149683 0.972583,-1.5888185 0,-2.0563558 -1.531478,-2.0244492 -3.6315846,0.07566 -2.1267796,2.1267797 -2.1224644,2.974766 0.010973,2.1560902 0.9214957,-0.3536127 2.1131096,-0.6429313 2.6480286,-0.6429317 z m 55.678228,-8.2262373 c -1.454605,-2.304245 -4.825527,-5.467567 -7.490939,-7.029604 -4.904122,-2.874001 -5.781128,-4.166359 -3.700147,-5.452477 1.465029,-0.905436 -3.283749,-5.936975 -9.480003,-10.044501 -4.34528,-2.880505 -4.809162,-2.972695 -7.626688,-1.515697 -1.649999,0.853248 -4.017624,1.551359 -5.261394,1.551359 -2.178948,0 -2.23409,0.299282 -1.51246,8.208895 0.411917,4.514893 0.957359,8.56638 1.212099,9.003305 0.25473,0.436925 1.984127,0.804725 3.843087,0.817333 5.705755,0.0387 21.661093,3.985215 26.960046,6.668504 2.760233,1.397735 5.172176,2.4155794 5.359879,2.2618771 0.187692,-0.1537013 -0.848874,-2.1647491 -2.30348,-4.4689941 z M 39.92484,-41.981001 c 0,-2.58644 -4.942687,-4.296911 -12.416626,-4.296911 -7.51616,0 -7.708407,0.06604 -7.708407,2.648031 0,2.638739 0.03527,2.648031 10.062517,2.648031 5.598943,0 10.062516,-0.443208 10.062516,-0.999151 z"
         style="fill:#728da3;stroke-width:1.05921" />
      <path
         id="path92104"
         d="m 14.063906,169.76096 c -23.7216084,-3.73426 -43.878647,-13.8684 -60.353583,-30.34334 -17.57205,-17.57205 -29.130211,-41.267991 -31.017079,-63.589609 -0.555103,-6.566863 -0.94308,-7.710992 -2.614817,-7.710992 -2.391835,0 -2.43001,-0.741999 -0.3004,-5.838876 0.914429,-2.188534 2.332822,-8.443871 3.151984,-13.900741 6.888536,-45.8882052 42.03791,-82.396528 87.079185,-90.445853 6.353623,-1.135455 7.617742,-1.708691 7.884316,-3.575274 0.273717,-1.916599 1.151407,-2.266625 6.367718,-2.539467 6.903808,-0.361108 13.724532,1.176726 16.20043,3.652625 0.930242,0.93025 5.12235,2.299714 9.315772,3.043253 18.820423,3.337062 37.552391,13.135117 52.468958,27.444733 10.34268,9.9218385 16.20777,17.8058874 22.28755,29.959669 16.56997,33.124165 14.43272,74.246281 -5.45,104.861692 -16.01963,24.66701 -40.182153,41.60748 -67.78049,47.52128 -9.451648,2.0253 -28.826018,2.78536 -37.239544,1.4609 z m 36.453057,-2.63174 c 38.439927,-8.14652 68.622857,-36.50387 80.019847,-75.179924 2.24371,-7.614084 2.91612,-12.51775 3.34059,-24.361883 0.6106,-17.037143 -1.26433,-28.758077 -6.94688,-43.427705 -8.80128,-22.7207361 -29.066153,-44.698017 -51.522068,-55.875747 -8.23868,-4.100911 -11.288745,-4.510608 -4.454517,-0.598347 25.862299,14.804894 43.843715,40.4434786 48.467635,69.106992 1.10288,6.836627 1.60229,8.021742 3.38048,8.021742 1.56853,0 1.89903,0.460102 1.33145,1.853622 -2.15274,5.2855 -3.57309,11.222947 -4.6475,19.427881 -0.65542,5.005308 -2.31853,12.393314 -3.69579,16.417791 -2.77411,8.106195 -9.20091,21.616598 -10.28286,21.616598 -0.38126,0 1.33352,-4.03828 3.81062,-8.973945 8.09231,-16.124093 11.91737,-35.652187 8.60492,-43.930787 -2.16683,-5.415447 -2.17082,-6.41116 -0.0257,-6.41116 1.43208,0 1.5944,-0.815463 1.00149,-5.031259 -3.8532,-27.397971 -19.024605,-51.579074 -42.005285,-66.950604 -5.107914,-3.416622 -10.279253,-6.526937 -11.491882,-6.91181 -1.218782,-0.386827 -1.887876,-1.212545 -1.496137,-1.846381 0.406081,-0.657062 0.217869,-0.843297 -0.440833,-0.436195 -0.632212,0.390729 -4.722223,-0.488916 -9.088921,-1.954767 -10.573057,-3.54926 -12.761432,-3.410989 -6.953104,0.439332 2.575782,1.707483 6.063588,4.546893 7.75068,6.309801 2.391945,2.499433 3.481673,2.983594 4.948471,2.198586 1.614959,-0.864299 2.141949,-0.221093 3.725567,4.547126 1.014482,3.054604 3.196639,7.751446 4.849233,10.437429 1.652593,2.685981 3.00472,5.3996648 3.00472,6.0304088 0,0.630743 1.00496,1.8507098 2.233254,2.711037 4.261211,2.9846697 -1.710522,6.7941078 -6.674796,4.2579277 -1.708996,-0.8731024 -3.101967,-1.0541292 -3.474396,-0.4515221 -0.341924,0.5532425 1.368725,1.54185617 3.801439,2.19691862 7.336506,1.97551468 10.203847,4.77499488 11.027957,10.76692898 0.39516,2.873167 0.432487,5.509926 0.08294,5.859467 -0.34954,0.349539 -4.092468,-1.047535 -8.317623,-3.104609 C 66.154845,11.825089 61.267968,9.6606352 59.520268,9.0722671 57.772568,8.483898 55.508501,7.6545548 54.489009,7.2292811 53.450928,6.796255 52.635388,6.9175888 52.635388,7.5050555 c 0,0.5769487 0.83413,1.3113282 1.853621,1.6319538 6.124578,1.9261497 11.591437,4.2797307 14.115328,6.0769047 1.591859,1.133502 3.463646,2.060913 4.159516,2.060913 0.695882,0 2.906341,0.778756 4.912129,1.730568 3.404859,1.61571 3.735535,1.609362 4.98227,-0.09565 1.092874,-1.494606 1.532193,-1.568428 2.419357,-0.406552 1.818445,2.381523 3.608006,12.466506 2.946369,16.604151 -0.712681,4.456858 1.992081,16.275916 4.645408,20.299124 0.960515,1.456417 1.5697,3.124677 1.353748,3.707243 -0.215953,0.582567 -0.503804,5.1107 -0.639669,10.062517 -0.331163,12.069926 -1.214768,16.919826 -3.70701,20.34695 -1.14789,1.57847 -2.087061,3.458964 -2.087061,4.178889 0,2.038327 -5.472516,7.250533 -7.612655,7.250533 -1.05614,0 -1.920256,-0.45395 -1.920256,-1.008774 0,-0.554826 -2.264066,-3.401576 -5.031258,-6.326114 -9.77743,-10.333369 -11.589213,-13.058658 -12.159577,-18.2905 -0.611706,-5.610934 -6.037341,-13.56547 -9.25276,-13.56547 -1.047042,0 -3.118173,-1.592261 -4.602532,-3.538352 -2.363314,-3.09846 -3.318332,-3.547704 -7.682,-3.613672 -4.416248,-0.06673 -5.736313,0.516536 -11.603216,5.12716 -7.252299,5.699356 -11.971382,6.67023 -17.7558113,3.652969 -1.620079,-0.845061 -3.5409425,-1.308021 -4.2685853,-1.028792 -1.9092111,0.732625 -9.2036068,-6.312069 -9.2036068,-8.88855 0,-1.197826 -0.4766455,-2.472446 -1.0592123,-2.832492 -1.2997975,-0.80332 -1.4158565,-9.717076 -0.13681,-10.507571 0.5073214,-0.313542 1.2073951,-1.995036 1.5557181,-3.736654 0.3483241,-1.741617 1.6015025,-4.134765 2.78484068,-5.318103 C 0.86227014,29.857091 1.793198,27.530422 1.793198,25.70038 c 0,-2.180059 0.944273,-4.072029 2.9128338,-5.836229 1.6020586,-1.435745 3.9162871,-3.558985 5.1427299,-4.71831 1.2264423,-1.159324 2.6256583,-2.107863 3.1093683,-2.107863 0.483711,0 1.906283,-0.964636 3.161271,-2.143637 2.07085,-1.9454626 2.791877,-2.0342447 7.79928,-0.9603496 5.292195,1.1349736 5.62142,1.0711316 8.063211,-1.563606 1.400152,-1.5107916 2.925979,-2.8077241 3.390719,-2.8820733 0.46474,-0.074346 1.798278,-0.2592857 2.963411,-0.4109691 4.008261,-0.5218199 8.115515,-2.6467375 7.658179,-3.9620208 -0.251955,-0.72462411 -1.601465,-1.17364434 -2.998927,-0.99782251 -8.168729,1.02775371 -9.561339,0.24237638 -7.118266,-4.01443589 2.102494,-3.6633822 1.619228,-4.3904076 -1.861884,-2.8010118 -1.957562,0.8937771 -2.485738,1.781825 -2.071236,3.4824571 0.455927,1.8705859 0.174802,2.1829614 -1.557,1.7300846 -2.848921,-0.7450118 -2.695769,1.04742751 0.201324,2.35607692 2.688302,1.21433608 3.832591,3.69360898 1.704771,3.69360898 -0.799229,0 -3.32295,-0.9532911 -5.608296,-2.1184247 -4.438566,-2.26290966 -9.003305,-2.79993772 -9.003305,-1.0592123 0,0.5825668 1.429937,1.0592123 3.177637,1.0592123 2.067689,0 3.177637,0.5357284 3.177637,1.5337183 0,1.2346422 -0.602819,1.3235748 -3.091364,0.4560629 C 16.280986,2.8096509 11.033547,3.6536303 9.7547143,6.2354868 9.1551609,7.4459334 7.8335161,9.2674005 6.8177262,10.28319 c -1.0157899,1.01579 -1.8468913,3.166274 -1.8468913,4.778852 0,2.133045 -0.7538509,3.275436 -2.7665809,4.192498 -3.01939164,1.375727 -4.8688123,0.506619 -6.8670121,-3.227052 C -5.5289257,14.40904 -5.0675074,13.699007 -1.9568986,11.863703 2.3961822,9.2953224 2.7270918,8.0490309 -0.59002961,6.7157114 -1.9008048,6.1888444 -2.371255,5.7275585 -1.6354753,5.6906311 -0.89969561,5.6537049 0.74438193,3.4785869 2.0180296,0.85703644 3.2916763,-1.7645141 4.8587152,-3.909419 5.5003362,-3.909419 c 2.2576697,0 6.8685518,-2.6632803 6.8767208,-3.9720462 0.01109,-1.7768827 -3.9038847,-1.694207 -4.9703622,0.1049573 C 6.9408225,-6.9905702 5.220683,-6.0211219 3.5841629,-5.622177 0.64313288,-4.9052258 0.61246445,-4.9489035 0.93613219,-9.3934961 1.251501,-13.724136 1.4395864,-13.94209 6.0300472,-15.29637 c 2.6215504,-0.77341 7.3880058,-1.7451 10.5921228,-2.15931 5.72232,-0.73975 5.844458,-0.828275 6.88488,-4.98996 0.582567,-2.330267 1.373428,-4.717125 1.757466,-5.304129 0.384028,-0.587003 1.03288,-2.85107 1.441895,-5.031258 l 0.743641,-3.963974 h -4.884335 c -4.503816,0 -4.884335,-0.206298 -4.884335,-2.648031 0,-1.456417 -0.196392,-2.648031 -0.436429,-2.648031 -0.240035,0 -3.934038,0.674781 -8.2088952,1.499513 -41.8351828,8.071105 -74.9907408,40.85415237 -83.6244428,82.684899 -2.483034,12.030432 -2.474219,13.601784 0.114515,20.412805 l 2.113573,5.560865 h -2.260379 c -2.145131,0 -2.224886,0.346437 -1.564249,6.794635 3.633487,35.464906 25.81893,67.117886 58.60691,83.617146 9.0587127,4.55844 23.3635028,8.88643 33.670579,10.18724 8.999555,1.13578 25.073896,0.39482 34.424399,-1.58682 z M -0.85483268,145.00628 C -7.4412657,143.37425 -13.795904,140.16371 -22.138936,134.25294 -34.595651,125.42779 -42.836978,114.03516 -49.401871,96.565248 l -2.643775,-7.035373 3.259677,-0.651934 c 2.184405,-0.436883 3.841731,-0.125188 5.02417,0.944902 0.970471,0.878267 2.502881,1.596847 3.405357,1.596847 2.703953,0 8.840629,2.916033 12.348685,5.867867 2.050515,1.725404 4.393665,2.695695 6.218341,2.575009 8.542574,-0.564995 12.0715154,0.07478 14.6532468,2.656494 1.9714165,1.97142 2.4581659,3.29309 1.9534237,5.30414 -0.409627,1.63209 0.045906,4.19188 1.1660466,6.5524 1.4032974,2.95722 1.6839166,5.35097 1.1858856,10.11588 -0.7446591,7.1245 1.3006226,12.49938 7.0644004,18.56481 3.5950206,3.78317 3.0903419,3.97657 -5.08841978,1.94999 z M 99.834968,71.399232 c -0.359465,-0.581624 0.313072,-1.574826 1.494512,-2.207123 2.44335,-1.30764 2.91355,0.148682 0.65358,2.024282 -0.96391,0.799981 -1.72656,0.864889 -2.148092,0.182841 z m -0.923262,-7.783865 c -0.334373,-2.475909 -0.158808,-4.954466 0.390139,-5.507904 0.548958,-0.553439 0.998095,-2.312727 0.998095,-3.909532 0,-3.341769 1.60694,-4.771405 3.55029,-3.158566 1.01716,0.844169 1.10353,2.712172 0.35925,7.770472 -1.29349,8.790933 -1.47138,9.307182 -3.20723,9.307182 -0.94272,0 -1.703974,-1.639226 -2.090544,-4.501652 z M -50.005815,37.664665 c 2.240902,-6.208266 7.913454,-16.546481 9.334504,-17.012114 1.099677,-0.360332 1.276733,0.03706 0.672332,1.509006 -0.451257,1.098983 -1.210598,3.629789 -1.687425,5.624014 -0.476828,1.994225 -1.658167,4.068647 -2.625201,4.609826 -0.967033,0.541179 -2.434945,2.603543 -3.262029,4.583032 -1.811485,4.335495 -3.969141,4.944275 -2.432181,0.686236 z m 18.458672,-26.704911 c -0.694209,-1.1232514 3.049321,-5.3362621 4.741609,-5.3362621 0.582567,0 1.044234,0.5958069 1.025927,1.3240154 -0.04646,1.8479093 -4.982821,5.2819437 -5.767536,4.0122467 z M -9.1819636,5.0938857 c -0.3713852,-0.9678139 -0.00168,-1.5888184 0.9458883,-1.5888184 0.855566,0 1.555575,0.7149683 1.555575,1.5888184 0,0.8738502 -0.4256497,1.5888185 -0.9458882,1.5888185 -0.5202385,0 -1.2202475,-0.7149683 -1.5555751,-1.5888185 z m 4.6198879,-0.2570676 c 0,-1.1723648 -0.7149683,-2.7249445 -1.5888184,-3.4501755 -0.8738502,-0.72523102 -1.5888185,-1.95303923 -1.5888185,-2.728461 0,-1.3271401 0.9789643,-1.0029195 7.27043743,2.4078777 0.21205748,0.1149616 -0.62207223,1.4900173 -1.85362153,3.0556771 -2.0068927,2.5513523 -2.239179,2.6255321 -2.239179,0.7150817 z M 67.854637,-13.733808 c -1.798065,-2.976813 -4.778858,-5.885391 -7.899065,-7.707691 -4.438703,-2.59234 -4.870872,-3.159283 -3.7825,-4.962089 1.055262,-1.747956 0.705298,-2.486622 -2.478472,-5.231217 -2.038983,-1.757723 -5.486719,-4.399635 -7.661632,-5.870915 -3.826669,-2.58866 -4.071305,-2.619573 -7.574565,-0.957168 -1.991096,0.944838 -4.672259,1.717887 -5.958153,1.717887 -1.890154,0 -2.226962,0.456491 -1.758399,2.383228 0.31877,1.310775 0.904483,5.325429 1.301592,8.921454 l 0.722023,6.538225 5.433303,0.695673 c 9.974168,1.277074 23.393021,4.801922 27.676773,7.270096 2.330267,1.3426335 4.378614,2.3381745 4.551869,2.2123125 0.173266,-0.1258609 -0.984485,-2.3802695 -2.572774,-5.0097955 z M 38.535853,-40.19813 c 2.420798,-2.420796 1.048345,-4.72164 -3.583718,-6.007921 -4.644349,-1.289692 -14.814746,-1.510999 -15.471763,-0.336664 -0.244452,0.436925 -0.213682,2.639662 0.06837,4.894972 l 0.512832,4.100562 8.397806,-0.486141 c 5.731292,-0.331779 8.930823,-1.019159 10.076467,-2.164808 z"
         style="fill:#2f31f5;stroke-width:1.05921" />
      <path
         id="path92102"
         d="M -0.85483268,145.00628 C -7.4412657,143.37425 -13.795904,140.16371 -22.138936,134.25294 -34.595651,125.42779 -42.836978,114.03516 -49.401871,96.565248 l -2.643775,-7.035373 3.259677,-0.651934 c 2.184405,-0.436883 3.841731,-0.125188 5.02417,0.944902 0.970471,0.878267 2.502881,1.596847 3.405357,1.596847 2.703953,0 8.840629,2.916033 12.348685,5.867867 2.050515,1.725404 4.393665,2.695695 6.218341,2.575009 8.542574,-0.564995 12.0715154,0.07478 14.6532468,2.656494 1.9714165,1.97142 2.4581659,3.29309 1.9534237,5.30414 -0.409627,1.63209 0.045906,4.19188 1.1660466,6.5524 1.4032974,2.95722 1.6839166,5.35097 1.1858856,10.11588 -0.7446591,7.1245 1.3006226,12.49938 7.0644004,18.56481 3.5950206,3.78317 3.0903419,3.97657 -5.08841978,1.94999 z M 109.31797,95.156295 c 8.09231,-16.124093 11.91737,-35.652187 8.60492,-43.930787 -2.16683,-5.415447 -2.17082,-6.41116 -0.0257,-6.41116 1.43208,0 1.5944,-0.815463 1.00149,-5.031259 C 115.04797,12.402718 99.872687,-11.796929 76.930328,-27.142823 67.629046,-33.364347 54.679689,-39.097887 46.80972,-40.479217 l -4.236849,-0.743647 4.766456,3.225021 c 2.62155,1.773761 6.146799,4.6674 7.833891,6.430308 2.391945,2.499433 3.481673,2.983594 4.948471,2.198586 1.614959,-0.864299 2.141949,-0.221093 3.725567,4.547126 1.014482,3.054604 3.196639,7.751446 4.849233,10.437429 1.652593,2.685981 3.00472,5.3996648 3.00472,6.0304088 0,0.630743 1.00496,1.8507098 2.233254,2.711037 4.261211,2.9846697 -1.710522,6.7941078 -6.674796,4.2579277 -1.708996,-0.8731024 -3.101967,-1.0541292 -3.474396,-0.4515221 -0.341924,0.5532425 1.368725,1.54185617 3.801439,2.19691862 7.336506,1.97551468 10.203847,4.77499488 11.027957,10.76692898 0.39516,2.873167 0.432487,5.509926 0.08294,5.859467 -0.34954,0.349539 -4.092468,-1.047535 -8.317623,-3.104609 C 66.154845,11.825089 61.267968,9.6606352 59.520268,9.0722671 57.772568,8.483898 55.508501,7.6545548 54.489009,7.2292811 53.450928,6.796255 52.635388,6.9175888 52.635388,7.5050555 c 0,0.5769487 0.83413,1.3113282 1.853621,1.6319538 6.124578,1.9261497 11.591437,4.2797307 14.115328,6.0769047 1.591859,1.133502 3.463646,2.060913 4.159516,2.060913 0.695882,0 2.906341,0.778756 4.912129,1.730568 3.404859,1.61571 3.735535,1.609362 4.98227,-0.09565 1.092874,-1.494606 1.532193,-1.568428 2.419357,-0.406552 1.818445,2.381523 3.608006,12.466506 2.946369,16.604151 -0.712681,4.456858 1.992081,16.275916 4.645408,20.299124 0.960515,1.456417 1.5697,3.124677 1.353748,3.707243 -0.215953,0.582567 -0.503804,5.1107 -0.639669,10.062517 -0.331163,12.069926 -1.214768,16.919826 -3.70701,20.34695 -1.14789,1.57847 -2.087061,3.515039 -2.087061,4.303485 0,2.00136 -5.564191,7.125937 -7.73725,7.125937 -0.987609,0 -1.795661,-0.45395 -1.795661,-1.008774 0,-0.554826 -2.264066,-3.401576 -5.031258,-6.326114 -9.77743,-10.333369 -11.589213,-13.058658 -12.159577,-18.2905 -0.611706,-5.610934 -6.037341,-13.56547 -9.25276,-13.56547 -1.047042,0 -3.118173,-1.592261 -4.602532,-3.538352 -2.363314,-3.09846 -3.318332,-3.547704 -7.682,-3.613672 -4.416248,-0.06673 -5.736313,0.516536 -11.603216,5.12716 -7.252299,5.699356 -11.971382,6.67023 -17.7558113,3.652969 -1.620079,-0.845061 -3.5409425,-1.308021 -4.2685853,-1.028792 -1.9092111,0.732625 -9.2036068,-6.312069 -9.2036068,-8.88855 0,-1.197826 -0.4766455,-2.472446 -1.0592123,-2.832492 -1.2997975,-0.80332 -1.4158565,-9.717076 -0.13681,-10.507571 0.5073214,-0.313542 1.2073951,-1.995036 1.5557181,-3.736654 0.3483241,-1.741617 1.6015014,-4.134764 2.78484068,-5.318103 C 0.86227014,29.857091 1.793198,27.530422 1.793198,25.70038 c 0,-2.180059 0.944273,-4.072029 2.9128338,-5.836229 1.6020586,-1.435745 3.9162871,-3.558985 5.1427299,-4.71831 1.2264423,-1.159324 2.6256583,-2.107863 3.1093683,-2.107863 0.483711,0 1.906283,-0.964636 3.161271,-2.143637 2.07085,-1.9454626 2.791877,-2.0342447 7.79928,-0.9603496 5.292195,1.1349736 5.62142,1.0711316 8.063211,-1.563606 1.400152,-1.5107916 2.925979,-2.8077241 3.390719,-2.8820733 0.46474,-0.074346 1.798278,-0.2592857 2.963411,-0.4109691 4.008261,-0.5218199 8.115515,-2.6467375 7.658179,-3.9620208 -0.251955,-0.72462411 -1.601465,-1.17364434 -2.998927,-0.99782251 -8.168729,1.02775371 -9.561339,0.24237638 -7.118266,-4.01443589 2.102494,-3.6633822 1.619228,-4.3904076 -1.861884,-2.8010118 -1.957562,0.8937771 -2.485738,1.781825 -2.071236,3.4824571 0.455927,1.8705859 0.174802,2.1829614 -1.557,1.7300846 -2.848921,-0.7450118 -2.695769,1.04742751 0.201324,2.35607692 2.688302,1.21433608 3.832591,3.69360898 1.704771,3.69360898 -0.799229,0 -3.32295,-0.9532911 -5.608296,-2.1184247 -4.438566,-2.26290966 -9.003305,-2.79993772 -9.003305,-1.0592123 0,0.5825668 1.429937,1.0592123 3.177637,1.0592123 2.067689,0 3.177637,0.5357284 3.177637,1.5337183 0,1.2346422 -0.602819,1.3235748 -3.091364,0.4560629 C 16.280986,2.8096509 11.033547,3.6536303 9.7547143,6.2354868 9.1551609,7.4459334 7.8335161,9.2674005 6.8177262,10.28319 c -1.0157899,1.01579 -1.8468913,3.166274 -1.8468913,4.778852 0,2.133045 -0.7538509,3.275436 -2.7665809,4.192498 -3.01939164,1.375727 -4.8688123,0.506619 -6.8670121,-3.227052 C -5.5289257,14.40904 -5.0675074,13.699007 -1.9568986,11.863703 2.3961822,9.2953224 2.7270918,8.0490309 -0.59002961,6.7157114 -1.9008048,6.1888444 -2.371255,5.7275585 -1.6354753,5.6906311 -0.89969561,5.6537049 0.74438193,3.4785869 2.0180296,0.85703644 3.2916763,-1.7645141 4.8587152,-3.909419 5.5003362,-3.909419 c 2.2576697,0 6.8685518,-2.6632803 6.8767208,-3.9720462 0.01109,-1.7768827 -3.9038847,-1.694207 -4.9703622,0.1049573 C 6.9408225,-6.9905702 5.220683,-6.0211219 3.5841629,-5.622177 0.64313288,-4.9052258 0.61246445,-4.9489035 0.93613219,-9.3934961 1.251501,-13.724136 1.4395864,-13.94209 6.0300472,-15.29637 c 2.6215504,-0.77341 7.3880058,-1.7451 10.5921228,-2.15931 5.72232,-0.73975 5.844458,-0.828275 6.88488,-4.98996 0.582567,-2.330267 1.373428,-4.717125 1.757466,-5.304129 0.384028,-0.587003 1.03288,-2.85107 1.441895,-5.031258 l 0.743641,-3.963974 h -4.939689 -4.939688 l 0.320156,-5.560865 0.320158,-5.560865 6.050241,-0.316461 c 6.843126,-0.357934 13.720242,1.172437 16.139292,3.59149 0.896623,0.896626 4.612075,2.355721 8.25656,3.242435 9.835157,2.392922 26.739073,11.014508 35.754675,18.236127 18.384503,14.7262451 31.281593,36.794615 35.009813,59.905746 1.10288,6.836627 1.60229,8.021742 3.38048,8.021742 1.56853,0 1.89903,0.460102 1.33145,1.853622 -2.15274,5.2855 -3.57309,11.222947 -4.6475,19.427881 -0.65542,5.005308 -2.31853,12.393314 -3.69579,16.417791 -2.77411,8.106195 -9.20091,21.616598 -10.28286,21.616598 -0.38126,0 1.33352,-4.03828 3.81062,-8.973945 z M 67.854637,-13.733808 c -1.798065,-2.976813 -4.778858,-5.885391 -7.899065,-7.707691 -4.438703,-2.59234 -4.870872,-3.159283 -3.7825,-4.962089 1.055262,-1.747956 0.705298,-2.486622 -2.478472,-5.231217 -2.038983,-1.757723 -5.486719,-4.399635 -7.661632,-5.870915 -3.826669,-2.58866 -4.071305,-2.619573 -7.574565,-0.957168 -1.991096,0.944838 -4.672259,1.717887 -5.958153,1.717887 -1.890154,0 -2.226962,0.456491 -1.758399,2.383228 0.31877,1.310775 0.904483,5.325429 1.301592,8.921454 l 0.722023,6.538225 5.433303,0.695673 c 9.974168,1.277074 23.393021,4.801922 27.676773,7.270096 2.330267,1.3426335 4.378614,2.3381745 4.551869,2.2123125 0.173266,-0.1258609 -0.984485,-2.3802695 -2.572774,-5.0097955 z M 38.535853,-40.19813 c 2.420798,-2.420796 1.048345,-4.72164 -3.583718,-6.007921 -4.644349,-1.289692 -14.814746,-1.510999 -15.471763,-0.336664 -0.244452,0.436925 -0.213682,2.639662 0.06837,4.894972 l 0.512832,4.100562 8.397806,-0.486141 c 5.731292,-0.331779 8.930823,-1.019159 10.076467,-2.164808 z M 99.834968,71.399232 c -0.359465,-0.581624 0.313072,-1.574826 1.494512,-2.207123 2.44335,-1.30764 2.91355,0.148682 0.65358,2.024282 -0.96391,0.799981 -1.72656,0.864889 -2.148092,0.182841 z m -0.923262,-7.783865 c -0.334373,-2.475909 -0.158808,-4.954466 0.390139,-5.507904 0.548958,-0.553439 0.998095,-2.312727 0.998095,-3.909532 0,-3.341769 1.60694,-4.771405 3.55029,-3.158566 1.01716,0.844169 1.10353,2.712172 0.35925,7.770472 -1.29349,8.790933 -1.47138,9.307182 -3.20723,9.307182 -0.94272,0 -1.703974,-1.639226 -2.090544,-4.501652 z M -50.005815,37.664665 c 2.240902,-6.208266 7.913454,-16.546481 9.334504,-17.012114 1.099677,-0.360332 1.276733,0.03706 0.672332,1.509006 -0.451257,1.098983 -1.210598,3.629789 -1.687425,5.624014 -0.476828,1.994225 -1.658167,4.068647 -2.625201,4.609826 -0.967033,0.541179 -2.434945,2.603543 -3.262029,4.583032 -1.811485,4.335495 -3.969141,4.944275 -2.432181,0.686236 z m 18.458672,-26.704911 c -0.694209,-1.1232514 3.049321,-5.3362621 4.741609,-5.3362621 0.582567,0 1.044234,0.5958069 1.025927,1.3240154 -0.04646,1.8479093 -4.982821,5.2819437 -5.767536,4.0122467 z M -9.1819636,5.0938857 c -0.3713852,-0.9678139 -0.00168,-1.5888184 0.9458883,-1.5888184 0.855566,0 1.555575,0.7149683 1.555575,1.5888184 0,0.8738502 -0.4256497,1.5888185 -0.9458882,1.5888185 -0.5202385,0 -1.2202475,-0.7149683 -1.5555751,-1.5888185 z m 4.6198879,-0.2570676 c 0,-1.1723648 -0.7149683,-2.7249445 -1.5888184,-3.4501755 -0.8738502,-0.72523102 -1.5888185,-1.95303923 -1.5888185,-2.728461 0,-1.3271401 0.9789643,-1.0029195 7.27043743,2.4078777 0.21205748,0.1149616 -0.62207223,1.4900173 -1.85362153,3.0556771 -2.0068927,2.5513523 -2.239179,2.6255321 -2.239179,0.7150817 z"
         style="fill:#048204;stroke-width:1.05921" />
      <path
         id="path92100"
         d="m 1.0196553,145.38226 c -2.4644311,-0.4864 -6.5968875,-1.82042 -9.183235,-2.96448 -4.8277883,-2.13556 -17.5827413,-10.39061 -17.5827413,-11.37961 0,-0.30395 0.595806,-0.1947 1.324015,0.24279 0.899648,0.5405 0.858079,0.22104 -0.129695,-0.99669 -1.573799,-1.94019 -2.789485,-2.45705 -1.723927,-0.73294 1.686804,2.72931 -1.630065,0.5605 -6.130288,-4.00843 -4.884808,-4.95938 -6.813529,-8.27206 -3.137819,-5.38936 1.677401,1.3155 1.71634,1.27859 0.40959,-0.38826 -0.794218,-1.01307 -1.842755,-1.59553 -2.330084,-1.29434 -1.243489,0.76852 -3.368591,-3.5337 -2.466484,-4.99334 0.445947,-0.72155 0.270296,-0.9093 -0.44001,-0.4703 -1.373985,0.84917 -4.214515,-4.34371 -8.586122,-15.696599 l -3.006439,-7.807602 3.310918,-0.506484 c 3.436719,-0.525729 6.377224,0.889368 5.338949,2.569331 -0.328172,0.530994 -0.203762,0.897185 0.276465,0.813772 3.862418,-0.670958 8.341493,0.635093 13.054081,3.806428 4.731057,3.18377 6.381564,3.707243 11.68882,3.707243 10.9885839,0 14.144597,2.544931 12.732488,10.267151 -0.4595625,2.51316 -0.3750258,5.0139 0.196432,5.81083 0.7340489,1.02369 0.8375541,0.88697 0.3858001,-0.50961 -0.3395655,-1.04975 -0.1828773,-1.64009 0.3481959,-1.31187 1.7218851,1.06418 2.2554919,6.24988 1.3344179,12.96815 -0.5932998,4.3275 -0.5399473,6.34702 0.15631,5.91671 0.63332,-0.39141 0.777464,0.0753 0.3595835,1.16429 -0.4700349,1.2249 -0.2973357,1.57029 0.5296062,1.05921 0.8177045,-0.50536 1.0030603,-0.17459 0.5555928,0.9915 -0.3693187,0.96243 -0.3203704,1.63643 0.1087737,1.49777 0.4291452,-0.13865 2.6123597,1.77365 4.8515895,4.24956 2.2392288,2.47591 3.6583784,4.44943 3.1536637,4.38559 -0.5047136,-0.0639 -2.9340148,-0.51401 -5.398447,-1.00041 z m 2.8919673,-1.34693 c 0,-0.18972 -1.3073656,-1.5005 -2.9052562,-2.91283 -2.3164432,-2.04743 -2.5179923,-2.10711 -0.99446155,-0.29448 1.47602605,1.75611 1.59480405,2.39984 0.52202854,2.8292 -0.76382128,0.30571 -0.31631362,0.59347 0.99446161,0.63946 1.3107752,0.046 2.3832276,-0.0716 2.3832276,-0.26135 z m -5.5829311,-1.35418 c -0.3519677,-0.35197 -1.2655383,-0.38959 -2.0301572,-0.0836 -0.8449686,0.33812 -0.5939808,0.58911 0.6399411,0.63993 1.1165856,0.046 1.7421828,-0.20435 1.3902161,-0.55632 z m -4.0382468,-0.81416 c -1.0813848,-0.9676 -7.3262187,-3.84305 -7.3262187,-3.37338 0,0.65841 5.4915772,3.66886 6.7966125,3.72586 0.5340189,0.0233 0.7723416,-0.13529 0.5296062,-0.35248 z m -8.3854307,-4.2308 c 0,-0.21388 -1.906582,-1.65058 -4.236849,-3.19267 -2.330267,-1.5421 -4.23685,-2.57592 -4.23685,-2.29737 0,0.46518 7.541909,5.87888 8.189973,5.87888 0.156049,0 0.283726,-0.17498 0.283726,-0.38884 z m 9.2077226,-9.91832 c -0.2685569,-1.03058 -0.5059465,-0.44384 -0.5275322,1.30386 -0.021587,1.7477 0.1981415,2.59089 0.4882842,1.87378 0.2901426,-0.71712 0.3078039,-2.14706 0.039244,-3.17764 z m -22.9774826,0.44281 c 0,-0.18229 -1.549098,-1.73138 -3.44244,-3.44244 l -3.44244,-3.111 3.111003,3.44244 c 2.899891,3.20884 3.773877,3.92931 3.773877,3.111 z m 24.0366949,-8.91651 c -0.2685569,-1.03058 -0.5059465,-0.44384 -0.5275322,1.30386 -0.021587,1.7477 0.1981415,2.5909 0.4882841,1.87378 0.2901426,-0.71712 0.307804,-2.14706 0.039244,-3.17764 z m -3.1880987,-11.07568 c -0.3381281,-0.84497 -0.5891159,-0.59399 -0.6399411,0.63994 -0.045991,1.11658 0.2043517,1.74218 0.5563195,1.39022 0.3519667,-0.35198 0.3895973,-1.26555 0.083625,-2.03016 z m 1.3948618,-2.28527 c 0,-0.20099 -1.0724524,-1.27344 -2.3832276,-2.38322 l -2.3832274,-2.01779 2.0177864,2.38323 c 1.8962209,2.23964 2.7486686,2.86542 2.7486686,2.01778 z m -15.093775,-4.60155 c -1.019492,-0.26642 -2.687751,-0.26642 -3.707243,0 -1.019492,0.26642 -0.185362,0.48441 1.853621,0.48441 2.038984,0 2.873114,-0.21799 1.853622,-0.48441 z m 7.964251,0.0354 c -0.717122,-0.29014 -2.147058,-0.30779 -3.177637,-0.0393 -1.03058,0.26855 -0.443844,0.50594 1.303857,0.52753 1.7477,0.0216 2.590901,-0.19814 1.87378,-0.48829 z m -15.113934,-1.78909 c 0,-0.200996 -1.072453,-1.273449 -2.383228,-2.383228 l -2.383227,-2.017789 2.017786,2.383228 c 1.896221,2.239641 2.748669,2.865419 2.748669,2.017789 z m -19.995732,-4.586379 c -1.248647,-2.147246 -1.550171,-1.459965 -0.528054,1.203626 0.363253,0.946618 0.88359,1.498001 1.156303,1.225286 0.272715,-0.272716 -0.01,-1.365727 -0.628249,-2.428912 z m 157.178448,0.214724 c 8.09231,-16.124093 11.91737,-35.652187 8.60492,-43.930787 -2.16683,-5.415447 -2.17082,-6.41116 -0.0257,-6.41116 1.43208,0 1.5944,-0.815463 1.00149,-5.031259 C 115.04797,12.402718 99.872687,-11.796929 76.930328,-27.142823 67.629046,-33.364347 54.679689,-39.097887 46.80972,-40.479217 l -4.236849,-0.743647 4.766456,3.225021 c 2.62155,1.773761 6.146799,4.6674 7.833891,6.430308 2.391945,2.499433 3.481673,2.983594 4.948471,2.198586 1.614959,-0.864299 2.141949,-0.221093 3.725567,4.547126 1.014482,3.054604 3.196639,7.751446 4.849233,10.437429 1.652593,2.685981 3.00472,5.3528191 3.00472,5.9263052 0,0.5734872 0.951607,1.9038971 2.114686,2.956466 4.328153,3.916928 -2.197686,6.42454013 -8.388273,3.2232658 -2.980708,-1.541387 -4.3331,-1.2494596 -4.302319,0.9287014 0.0089,0.63111371 0.478266,0.4325114 1.042996,-0.4413388 0.59086,-0.9142898 1.033664,-1.0628507 1.042995,-0.3499288 0.0085,0.6813903 2.323668,2.00530292 5.143885,2.94203005 6.946091,2.30711805 9.42038,4.87383845 10.290268,10.67466215 0.399006,2.660739 0.469327,5.093839 0.156276,5.406888 -0.949838,0.949835 -10.480619,-3.719377 -9.809269,-4.805644 0.343693,-0.556094 0.06684,-1.355983 -0.615265,-1.777533 -0.819226,-0.5063151 -0.954806,-0.304765 -0.399439,0.593829 0.563892,0.912397 0.356213,1.184256 -0.630751,0.825666 -0.809301,-0.294041 -1.393637,-0.951683 -1.29853,-1.461429 C 66.143586,9.7477999 64.356779,9.307533 62.077821,9.2791758 59.798862,9.2508207 57.337814,8.6267719 56.608832,7.8924063 55.544737,6.8204506 55.701087,6.7072621 57.401843,7.3183206 58.566977,7.7369383 59.206455,7.7294126 58.822914,7.3015956 58.439373,6.8737798 57.486082,6.4269479 56.70449,6.308637 55.922897,6.1903273 54.786553,5.782468 54.179285,5.4022839 c -0.607278,-0.3801842 -1.1708,0.1936537 -1.252275,1.2751952 -0.09798,1.3012032 0.929459,2.3420858 3.037217,3.076853 1.751927,0.6107269 2.936433,1.5131449 2.632217,2.0053719 -0.304216,0.492226 0.795204,0.697066 2.443147,0.455199 1.647944,-0.241866 3.27661,0.01384 3.619255,0.568254 0.362515,0.586576 -0.581434,0.790023 -2.257796,0.486616 -1.584433,-0.286768 -2.625194,-0.240368 -2.312811,0.103114 0.312383,0.343479 2.218965,0.806606 4.236849,1.029172 2.017884,0.222566 4.622169,0.926015 5.787303,1.563218 1.165133,0.637204 4.343384,2.016281 7.062785,3.064618 2.7194,1.048336 4.668722,2.393088 4.331839,2.988335 -0.342549,0.605234 -0.187523,0.693209 0.35169,0.199593 0.925985,-0.847669 1.067432,-1.273175 1.361438,-4.095621 0.276677,-2.65612 2.292908,0.987539 3.846053,6.950445 0.921493,3.537854 1.315224,7.7994 0.938356,10.156222 -0.38817,2.427461 0.05815,6.881859 1.109789,11.074978 0.967506,3.857863 1.489073,7.451232 1.159022,7.985276 -0.330061,0.534034 -0.04205,1.315881 0.640051,1.737426 0.848121,0.524172 0.956722,0.296187 0.343555,-0.721218 -0.730401,-1.211919 -0.59962,-1.247455 0.70551,-0.191685 1.249245,1.010552 1.56024,3.460044 1.412057,11.121729 -0.310763,16.067838 -2.345372,24.654713 -5.841789,24.654713 -0.555472,0 -1.842415,1.66826 -2.859873,3.707243 -1.33769,2.680708 -2.519517,3.682914 -4.268054,3.619393 -1.703997,-0.06186 -2.086394,0.243873 -1.294866,1.035401 1.622533,1.622535 4.388232,-0.354031 6.624176,-4.734118 1.405543,-2.753401 1.852372,-3.101204 1.853622,-1.442859 0.0021,2.229727 -5.046956,7.877462 -7.041834,7.877462 -1.215023,0 -4.60786,-3.422076 -4.60786,-4.647574 0,-0.425433 0.595807,-0.415571 1.324016,0.02193 0.910615,0.547083 0.87314,0.239519 -0.12002,-0.985036 -0.794218,-0.979263 -1.788988,-1.567285 -2.210607,-1.306708 -1.018041,0.629179 -5.348662,-2.445365 -5.348662,-3.797312 0,-0.583912 0.595807,-0.718792 1.324015,-0.299725 0.769242,0.442676 0.95417,0.357918 0.441342,-0.202289 -0.485479,-0.530326 -1.21319,-0.964233 -1.617152,-0.964233 -0.403952,0 -2.444154,-1.906582 -4.533779,-4.236849 -3.083197,-3.438277 -3.898663,-5.301877 -4.326458,-9.887387 -0.34309,-3.677638 -0.180437,-5.156955 0.465841,-4.236849 0.787472,1.121113 0.894092,1.084866 0.515138,-0.17513 -0.262812,-0.87385 -0.968968,-1.484688 -1.569223,-1.357423 -0.600256,0.127264 -2.352362,-1.421834 -3.893548,-3.44244 -1.541196,-2.020607 -3.49288,-3.673836 -4.337083,-3.673836 -1.778142,0 -5.771764,-3.70773 -5.771764,-5.358576 0,-0.616949 0.595807,-0.763777 1.324016,-0.32628 0.899652,0.540495 0.858078,0.221036 -0.12969,-0.996698 -1.495746,-1.843957 -2.810313,-2.490727 -1.826284,-0.898529 0.303761,0.491485 -1.217204,0.75794 -3.379925,0.592121 -2.16271,-0.16582 -5.032794,-0.329617 -6.377951,-0.364009 -1.677782,-0.0429 -2.189212,-0.478256 -1.628783,-1.386531 0.449329,-0.728208 -0.651341,-0.132401 -2.445933,1.324016 -1.794581,1.456417 -3.090294,2.84371 -2.879363,3.08288 0.210943,0.239159 1.339745,-0.430517 2.508448,-1.488183 1.168703,-1.057666 2.124918,-1.616294 2.124918,-1.241407 0,0.374897 -2.955245,2.831994 -6.567201,5.460229 -7.21,5.246331 -11.284516,6.008583 -16.819177,3.146496 -1.7358785,-0.897651 -3.6159856,-1.347901 -4.1780153,-1.000554 -1.9785789,1.222829 -8.361014,-4.825432 -9.0678242,-8.59305 -0.3717857,-1.981796 -1.0995736,-3.60326 -1.617306,-3.60326 -2.9770496,0 0.9353957,-15.53264 4.71644355,-18.724558 2.26754685,-1.914237 2.27109945,-1.912006 0.43269563,0.271745 -1.01949182,1.211005 -1.85362148,2.627837 -1.85362148,3.148515 0,0.520678 0.81339558,-0.214597 1.80754469,-1.633945 C 1.4493915,31.70694 2.1036669,29.117624 1.9368558,27.181452 1.5506289,22.698521 3.3891587,19.293977 5.7814014,20.06222 7.2128516,20.521914 7.2953811,20.421761 6.1548987,19.608967 4.9900744,18.778825 5.2065118,18.390872 7.214111,17.710373 c 1.3877481,-0.470391 2.808371,-0.78492 3.15694,-0.698951 0.348569,0.08597 2.255151,-1.283925 4.236849,-3.044206 l 3.603089,-3.200514 -3.972047,2.850173 c -2.184625,1.567596 -3.972046,2.305158 -3.972046,1.639028 0,-0.66613 1.145313,-1.646592 2.54514,-2.178806 1.399827,-0.532213 2.884461,-1.516694 3.299186,-2.187733 0.490947,-0.794369 3.391072,-1.0943487 8.311782,-0.859745 5.983585,0.285278 7.493567,0.05749 7.24963,-1.0936323 -0.19982,-0.9428896 0.284918,-1.2263909 1.37902,-0.8065425 0.927934,0.3560807 1.416294,0.209169 1.085259,-0.3264704 C 33.40595,6.620251 34.472312,5.892088 37.880635,5.2465913 42.729444,4.3282839 46.452257,2.4326985 45.994201,1.1153222 45.742246,0.39069809 44.392736,-0.05832214 42.995274,0.11749969 c -4.406715,0.55443304 -7.420417,0.4498676 -8.15317,-0.28288807 -0.389599,-0.3895963 0.363533,-2.57080682 1.673619,-4.84713562 1.985441,-3.4497773 2.085886,-4.0251562 0.60337,-3.4562596 -1.294665,0.4968055 -1.5427,0.3007982 -0.9116,-0.7203534 0.5812,-0.940391 0.458194,-1.150197 -0.373119,-0.6364171 -0.682079,0.4215495 -0.987132,1.1758464 -0.677885,1.6762162 0.309248,0.5003698 -0.444551,1.2293123 -1.675091,1.6198725 -1.626696,0.5162939 -2.112197,1.3648819 -1.778767,3.1090836 0.364687,1.907741 0.06059,2.2948842 -1.48527,1.8906432 -1.069116,-0.2795823 -1.943856,0.023906 -1.943856,0.67441956 0,0.65051207 0.656606,1.18274932 1.459129,1.18274932 1.659266,0 4.10699,2.55450762 3.259651,3.40185002 -0.627943,0.6279402 -7.429982,-1.5231294 -8.638766,-2.73191411 -0.43004,-0.4300455 0.03771,-0.46739015 1.039437,-0.0829893 1.134798,0.43546341 1.821337,0.19039131 1.821337,-0.65015935 0,-0.74198883 -0.313633,-1.0354436 -0.696951,-0.65211996 -0.383329,0.38332364 -1.428115,0.10528571 -2.321751,-0.61787348 -1.296031,-1.0487791 -1.463842,-1.0469191 -0.829353,0.009215 0.567145,0.94399333 -0.134498,1.32399105 -2.444704,1.32399105 -1.782084,0 -3.240152,0.47664555 -3.240152,1.05921235 0,0.5825668 1.429937,1.0592123 3.177637,1.0592123 2.225013,0 3.177637,0.5151956 3.177637,1.7185138 0,1.4082429 -0.287142,1.4802047 -1.590428,0.3985763 C 21.424956,3.7153654 18.789425,3.414369 15.081586,3.721852 11.125801,4.0498964 9.5224883,3.8409827 9.9904568,3.0584716 10.366156,2.4302496 9.8670819,2.5704183 8.8814022,3.3699594 7.8957236,4.1694995 7.0892595,5.4219122 7.0892595,6.1530981 c 0,0.7311859 -0.6567498,1.8744827 -1.4594431,2.5406595 C 4.47803,9.6496554 4.0073076,9.397887 3.396837,7.4994364 2.9713917,6.1763838 2.6866595,4.7009731 2.7640985,4.2207452 2.8415375,3.7405185 2.4086671,3.6542923 1.8021643,4.0291327 1.1956604,4.403972 0.97365796,5.1543689 1.3088256,5.6966814 1.6439932,6.2389938 0.81763811,6.66821 -0.52751807,6.6504946 -2.5269454,6.6241626 -2.66847,6.4399995 -1.3030564,5.6412973 -0.38444603,5.1039546 1.2370417,2.7352211 2.3002504,0.37744523 3.3634591,-1.9803296 4.853507,-3.909419 5.6114688,-3.909419 c 2.5162784,0 6.7738522,-2.4369785 6.7738522,-3.8772626 0,-1.8510837 -3.883443,-1.8389822 -4.9786262,0.015517 -0.4658723,0.7888728 -2.1822209,1.6807317 -3.8141069,1.9819092 -2.89586099,0.5344541 -2.9594095,0.4428386 -2.64803074,-3.8175411 l 0.31903474,-4.3651395 6.8848799,-1.781359 c 3.7866842,-0.979747 8.6304042,-1.813877 10.7638232,-1.853622 3.725078,-0.0694 3.908396,-0.250833 4.621415,-4.573915 0.408358,-2.475908 1.122564,-4.978298 1.587135,-5.560864 0.46457,-0.582567 1.178691,-2.846633 1.586933,-5.031259 l 0.742274,-3.972046 h -4.939689 -4.939688 l 0.320156,-5.560865 0.320158,-5.560865 6.050241,-0.316461 c 6.843126,-0.357934 13.720242,1.172437 16.139292,3.59149 0.896623,0.896626 4.612075,2.355721 8.25656,3.242435 9.835157,2.392922 26.739073,11.014508 35.754675,18.236127 18.384503,14.7262447 31.281593,36.794615 35.009813,59.905746 1.10288,6.836627 1.60229,8.021742 3.38048,8.021742 1.56853,0 1.89903,0.460102 1.33145,1.853622 -2.15274,5.2855 -3.57309,11.222947 -4.6475,19.427881 -0.65542,5.005308 -2.31853,12.393314 -3.69579,16.417791 -2.77411,8.106195 -9.20091,21.616598 -10.28286,21.616598 -0.38126,0 1.33352,-4.03828 3.81062,-8.973945 z M 90.542223,84.919611 c -0.264432,-0.793297 -0.744563,-0.313156 -1.119111,1.119111 -0.460725,1.761841 -0.322879,2.175389 0.46313,1.38938 0.615509,-0.615509 0.910701,-1.744332 0.655981,-2.508491 z m -23.92929,-1.229639 c -2.5305,-2.6108 -3.430386,-4.550069 -3.563476,-7.67929 l -0.178064,-4.18642 -0.423823,4.111852 c -0.361254,3.504902 0.08654,4.63845 3.03387,7.679289 1.901731,1.962096 3.696016,3.567438 3.987299,3.567438 0.291284,0 -0.993827,-1.571786 -2.855806,-3.492869 z M 92.586312,68.396386 c -0.24346,-1.610066 -0.449169,-0.54417 -0.457124,2.368664 -0.0074,2.912834 0.191251,4.230166 0.442666,2.927398 0.251415,-1.302768 0.257929,-3.685995 0.0144,-5.296062 z M 56.872237,63.350564 c -1.976257,-2.038984 -4.333831,-3.677035 -5.239044,-3.6401 -1.155791,0.04713 -1.015075,0.328038 0.472589,0.943377 1.165133,0.481931 3.273961,2.119971 4.686283,3.6401 1.412333,1.520128 2.816605,2.763866 3.12062,2.763866 0.304015,0 -1.064191,-1.66826 -3.040448,-3.707243 z m 34.596288,-1.853622 c -0.293836,-0.728208 -0.534256,-0.132401 -0.534256,1.324015 0,1.456417 0.24042,2.052224 0.534256,1.324016 0.293837,-0.728209 0.293837,-1.919822 0,-2.648031 z m -71.921172,1.655464 c -1.012699,-0.26511 -2.919281,-0.274728 -4.236849,-0.0214 -1.317567,0.253353 -0.488995,0.470269 1.841272,0.482026 2.330267,0.01176 3.408281,-0.195541 2.395577,-0.460651 z m 5.548515,-2.979479 c 1.368238,-1.456417 2.249375,-2.648031 1.958092,-2.648031 -0.291283,0 -1.649066,1.191614 -3.017304,2.648031 -1.368237,1.456417 -2.249375,2.64803 -1.958091,2.64803 0.291283,0 1.649066,-1.191613 3.017303,-2.64803 z M 8.4872968,60.394641 C 8.2028888,59.934021 7.1679664,59.811767 6.1874695,60.122964 5.1424411,60.454645 3.2069583,59.578126 1.5101543,58.004761 -0.08187251,56.528548 -1.3844388,55.67961 -1.3844388,56.11823 c 0,1.599231 5.8228045,5.386773 8.0745278,5.25221 1.2728723,-0.07605 2.0816159,-0.515169 1.7972078,-0.975799 z M -2.453434,49.562525 c -0.7233403,-1.351574 -1.1032967,-3.900949 -0.844349,-5.665277 0.2589489,-1.764329 0.080415,-2.96659 -0.3967385,-2.671691 -1.2340035,0.762656 -1.0778375,7.570655 0.1916581,8.355246 0.5825668,0.360047 1.0968419,1.698952 1.1428339,2.975346 0.048152,1.336231 0.325031,1.714741 0.6526909,0.892252 0.3129887,-0.785659 -0.022752,-2.534302 -0.7460954,-3.885876 z m 46.328257,3.08558 c -0.351976,-0.351966 -1.265547,-0.389597 -2.03016,-0.08362 -0.844966,0.338128 -0.593985,0.589116 0.639944,0.639941 1.116579,0.04599 1.742182,-0.204352 1.390216,-0.556321 z m 44.438129,-4.854722 c -0.338122,-0.844969 -0.589113,-0.593981 -0.639934,0.639941 -0.04597,1.116585 0.204344,1.742183 0.55632,1.390216 0.351965,-0.351968 0.389589,-1.265538 0.08357,-2.030157 z m -1.059212,-4.23685 c -0.338122,-0.844968 -0.589113,-0.593981 -0.639934,0.639941 -0.04597,1.116586 0.204343,1.742183 0.55632,1.390217 0.351965,-0.351968 0.389588,-1.265539 0.08357,-2.030158 z m -1.033633,-7.468337 c -0.253353,-1.317567 -0.470269,-0.488995 -0.482026,1.841272 -0.01176,2.330267 0.195541,3.408277 0.460652,2.395577 0.26511,-1.012699 0.274727,-2.919281 0.0214,-4.236849 z m -87.9401954,1.113063 c -0.3381281,-0.844968 -0.5891158,-0.59398 -0.6399411,0.639941 -0.045991,1.116586 0.2043517,1.742183 0.5563195,1.390217 0.3519667,-0.351968 0.3895973,-1.265539 0.083625,-2.030158 z M 87.059787,28.926163 c -0.954096,-4.34398 -1.809823,-3.488254 -0.92681,0.926811 0.372196,1.860977 0.897513,3.162805 1.167368,2.89295 0.269845,-0.269854 0.161604,-1.988746 -0.240558,-3.819761 z M 3.5864349,24.974276 c -0.2685569,-1.03058 -0.5059465,-0.443844 -0.5275322,1.303856 -0.021587,1.747701 0.1981416,2.590901 0.4882842,1.873781 0.2901426,-0.717122 0.3078039,-2.147059 0.039244,-3.177637 z M 84.642623,20.259643 c -0.663216,-0.663212 -0.810838,0.03326 -0.416758,1.96613 0.451998,2.216888 0.718347,2.48324 1.027023,1.027016 0.229213,-1.081372 -0.04544,-2.428288 -0.610265,-2.993146 z m -7.115746,0.192821 c -0.360048,-0.582566 -1.22231,-1.051913 -1.916136,-1.042992 -0.757983,0.0097 -0.62734,0.426044 0.327317,1.042992 2.034874,1.315039 2.401552,1.315039 1.588819,0 z m -6.08742,-2.590156 c -1.600375,-0.834842 -3.506957,-1.826559 -4.23685,-2.203815 -0.729882,-0.377256 -0.135452,0.298134 1.320965,1.500867 1.456417,1.202733 3.362999,2.194449 4.236849,2.203814 0.873851,0.0093 0.279421,-0.666025 -1.320964,-1.500866 z m 6.259309,-5.089133 c -0.293836,-0.728208 -0.534256,-0.132401 -0.534256,1.324016 0,1.456416 0.24042,2.052223 0.534256,1.324015 0.293836,-0.728209 0.293836,-1.919822 0,-2.648031 z M 28.273505,11.978766 c -1.456417,-0.466426 -3.839644,-0.839165 -5.296061,-0.828309 -2.378567,0.01773 -2.324675,0.102023 0.529606,0.828309 1.7477,0.444714 4.130928,0.817453 5.296061,0.828309 1.659998,0.01547 1.545381,-0.163781 -0.529606,-0.828309 z M 52.900191,8.9776646 c -1.019492,-1.0680398 -2.04071,-1.794526 -2.269362,-1.6144154 -0.625709,0.4928621 2.125182,3.5563048 3.193461,3.5563048 0.51124,0 0.09544,-0.873851 -0.924099,-1.9418894 z M 74.44154,4.9045981 c -1.572157,-1.352309 -3.427685,-2.4569616 -4.123408,-2.4547838 -0.695722,0.00222 0.284144,0.9484632 2.177486,2.1028563 1.893342,1.1543932 3.480074,2.9400313 3.526065,3.9680869 0.06228,1.3913283 0.236332,1.4823115 0.680968,0.3558869 C 77.045369,8.0084218 76.081518,6.3152465 74.44154,4.9045981 Z M 63.492314,8.0996327 c -0.728209,-0.2938382 -1.919822,-0.2938382 -2.648031,0 -0.728208,0.2938393 -0.132401,0.5342519 1.324016,0.5342519 1.456416,0 2.052223,-0.2404126 1.324015,-0.5342519 z M 44.306495,4.7890836 c -0.764159,-0.2547204 -1.892982,0.040472 -2.508491,0.655984 -0.786009,0.7860076 -0.372461,0.9238566 1.38938,0.4631268 1.432267,-0.374547 1.912408,-0.8546805 1.119111,-1.1191108 z m 3.867237,-3.5472459 c -0.264433,-0.79329285 -0.744563,-0.31315931 -1.119111,1.1191118 -0.460726,1.7618356 -0.32288,2.1753859 0.46313,1.3893784 0.615508,-0.6155104 0.9107,-1.744331 0.655981,-2.5084902 z M 31.980748,2.4458549 C 31.620701,1.8632882 30.758439,1.3939416 30.064612,1.4028623 c -0.757983,0.00975 -0.62734,0.4260438 0.327318,1.0429926 2.034874,1.3150386 2.401552,1.3150386 1.588818,0 z M 15.945997,0.85703644 c 0.335328,-0.87385017 1.935422,-1.65372914 3.555764,-1.73306414 2.626449,-0.1285958 2.678032,-0.1952891 0.475496,-0.6147223 -1.358812,-0.2587614 -3.265394,0.2205979 -4.236844,1.06524449 -0.97145,0.84464557 -2.481242,1.79860931 -3.355092,2.11991811 -1.081106,0.3975161 -0.863464,0.6109198 0.681085,0.6678207 1.248447,0.045992 2.544263,-0.6313467 2.879591,-1.50519686 z M 66.934754,1.3866426 c -2.91187,-1.25127082 -4.584239,-1.25127082 -2.648031,0 0.87385,0.5647254 2.303787,1.0005712 3.177637,0.9685459 1.047625,-0.038397 0.867219,-0.3683093 -0.529606,-0.9685459 z M 6.5854092,-1.7909944 c 0.7909222,0 1.7286535,-0.4702235 2.0838487,-1.0449415 0.4098166,-0.6630966 -0.2247638,-0.7228966 -1.7365606,-0.1636462 -1.3103049,0.4847136 -2.4903309,1.4434988 -2.6222823,2.13063523 -0.1319503,0.6871354 0.00244,0.76077608 0.298522,0.16364513 C 4.9050758,-1.3024327 5.7944879,-1.7909944 6.5854092,-1.7909944 Z M 30.39193,-4.3863929 c 0,-0.8449019 0.83413,-2.0220215 1.853621,-2.6158213 1.019492,-0.5937997 1.34377,-1.0941303 0.720625,-1.1118445 -0.623156,-0.017715 -2.169097,1.1594042 -3.435439,2.6158212 -1.76237,2.0268992 -1.931399,2.6480308 -0.720624,2.6480308 0.870005,0 1.581817,-0.6912833 1.581817,-1.5361862 z m 42.383172,-0.724998 c -1.448346,-1.2048879 -2.639959,-2.7381285 -2.648031,-3.4072001 -0.03983,-3.304203 -5.386708,-10.128437 -10.086126,-12.873047 -4.517848,-2.638562 -4.957093,-3.207737 -3.867873,-5.01195 1.055262,-1.747956 0.705298,-2.486622 -2.478472,-5.231217 -2.038983,-1.757723 -5.486719,-4.399635 -7.661632,-5.870915 -3.826669,-2.58866 -4.071305,-2.619573 -7.574565,-0.957168 -1.991096,0.944838 -4.672259,1.717887 -5.958153,1.717887 -1.890154,0 -2.226962,0.456491 -1.758399,2.383228 0.31877,1.310775 0.906358,5.341944 1.305744,8.958154 l 0.726175,6.574926 4.899545,0.690353 c 11.388661,1.604672 20.123223,3.90448 26.083802,6.867854 3.495401,1.7377786 5.416515,2.8881235 4.269134,2.5563199 -2.461588,-0.7118531 -1.889296,-0.046574 2.831084,3.2910596 4.335239,3.0653149 5.444478,3.2456119 1.917767,0.3117156 z M 13.91309,-4.8698503 c 0.326468,-0.5282376 -0.36037,-0.7109687 -1.526307,-0.4060691 -2.4732473,0.6467688 -2.7858844,1.3665004 -0.59358,1.3665004 0.839469,0 1.793418,-0.4321947 2.119887,-0.9604313 z M 6.0300472,-8.1130249 c 0,-0.5642838 -0.7149683,-0.7516108 -1.5888184,-0.4162821 -1.8305816,0.70246 -2.3105647,-3.319336 -0.5031259,-4.215709 0.597131,-0.296137 0.4779696,-0.418261 -0.264803,-0.271385 -0.7427727,0.146876 -1.5013169,1.541064 -1.6856538,3.0981965 -0.2679553,2.26347 0.103717,2.8311485 1.8536215,2.8311485 1.2038287,0 2.1887796,-0.4616863 2.1887796,-1.0259689 z M 62.168299,-11.323905 c -0.873851,-0.564726 -2.065464,-1.026773 -2.648031,-1.026773 -0.582567,0 -0.344244,0.462047 0.529606,1.026773 0.87385,0.564725 2.065464,1.026773 2.648031,1.026773 0.582566,0 0.344244,-0.462048 -0.529606,-1.026773 z m -4.523716,-1.699154 c -0.351976,-0.351966 -1.265547,-0.389597 -2.03016,-0.08362 -0.844966,0.338129 -0.593986,0.589116 0.639944,0.639942 1.116579,0.04599 1.742182,-0.204352 1.390216,-0.55632 z M 8.9208144,-14.082271 c -0.3519677,-0.351967 -1.2655383,-0.389597 -2.0301572,-0.08362 -0.8449686,0.338128 -0.5939808,0.589116 0.6399411,0.639941 1.1165856,0.04599 1.7421828,-0.204351 1.3902161,-0.556319 z m 44.4869196,0 c -0.351976,-0.351967 -1.265547,-0.389597 -2.030161,-0.08362 -0.844965,0.338128 -0.593985,0.589116 0.639945,0.639941 1.116579,0.04599 1.742181,-0.204351 1.390216,-0.556319 z m -40.25007,-1.059212 c -0.351968,-0.351967 -1.265539,-0.389598 -2.030158,-0.08363 -0.844968,0.338128 -0.59398,0.589116 0.639941,0.639941 1.116586,0.04599 1.742183,-0.204352 1.390217,-0.55632 z m 36.013221,0 c -0.351966,-0.351967 -1.265547,-0.389598 -2.030161,-0.08363 -0.844965,0.338128 -0.593985,0.589116 0.639944,0.639941 1.11658,0.04599 1.742182,-0.204352 1.390217,-0.55632 z m -27.505106,-1.147035 c -1.012702,-0.265114 -2.919282,-0.274732 -4.23685,-0.02138 -1.317567,0.253356 -0.488995,0.470267 1.841272,0.482024 2.330267,0.01176 3.40828,-0.195536 2.395578,-0.460648 z m 21.171895,-0.0023 c -1.019492,-0.266421 -2.687751,-0.266421 -3.707243,0 -1.019492,0.266421 -0.185362,0.484402 1.853622,0.484402 2.038983,0 2.873113,-0.217981 1.853621,-0.484402 z m -9.51394,-1.085905 c -1.591625,-0.241685 -4.451498,-0.24655 -6.355274,-0.0108 -1.903775,0.235739 -0.601537,0.433482 2.893864,0.439427 3.4954,0.0059 5.053036,-0.186933 3.46141,-0.428618 z m -2.562838,-7.452109 c -0.389811,-3.349759 -1.036249,-7.282085 -1.436525,-8.738502 -0.599514,-2.18134 -0.867114,-1.66798 -1.518328,2.912834 -0.434796,3.058475 -1.168353,5.560864 -1.630138,5.560864 -0.461774,0 -1.049468,1.429937 -1.305977,3.177637 -0.438662,2.988816 -0.256435,3.177637 3.066674,3.177637 h 3.533045 z M 38.535853,-40.1981 c 2.420798,-2.420796 1.048345,-4.72164 -3.583718,-6.007921 -4.644349,-1.289692 -14.814746,-1.510999 -15.471763,-0.336664 -0.244452,0.436925 -0.213682,2.639662 0.06837,4.894972 l 0.512832,4.100562 8.397806,-0.486141 c 5.731292,-0.331779 8.930823,-1.019159 10.076467,-2.164808 z M 99.797504,71.338613 c -0.380078,-0.614978 0.07467,-1.411972 1.010596,-1.771109 2.33015,-0.894165 3.05502,0.08855 1.20055,1.62765 -1.04393,0.866382 -1.73658,0.911325 -2.211146,0.143459 z M 98.98602,63.670594 c -0.268267,-2.506287 -0.08241,-5.009693 0.413082,-5.563131 0.495457,-0.553439 0.900838,-2.261419 0.900838,-3.795508 0,-3.529971 0.85664,-4.384497 3.15971,-3.151931 1.63904,0.877194 1.69618,1.644367 0.5691,7.642028 -0.68907,3.666813 -1.30813,7.143582 -1.37567,7.726149 -0.0676,0.582566 -0.81052,1.203222 -1.65106,1.379242 -1.089952,0.22825 -1.668134,-0.986868 -2.016,-4.236849 z m 3.07801,2.063197 c -0.0655,-0.728208 0.2767,-3.870891 0.76028,-6.983736 0.61901,-3.984598 0.50996,-6.022328 -0.36847,-6.884876 -0.95405,-0.936803 -1.16762,-0.352611 -0.90741,2.48208 0.2138,2.328911 -0.25038,4.228704 -1.24849,5.10981 -0.873849,0.771403 -1.021249,1.11821 -0.327539,0.770672 0.908139,-0.454974 1.091749,0.412722 0.655809,3.099086 -0.36108,2.225129 -0.1695,3.73098 0.47467,3.73098 0.59406,0 1.02657,-0.595807 0.96115,-1.324016 z M -48.432685,34.751831 c 1.511692,-3.495401 3.166761,-7.308565 3.677933,-8.473699 1.089566,-2.483494 3.639673,-5.825668 4.445034,-5.825668 1.269954,0 -2.740999,10.867514 -4.859978,13.167912 -1.259762,1.36762 -3.127712,3.611614 -4.150998,4.986655 -1.222447,1.642663 -0.9179,0.320504 0.888009,-3.8552 z m 5.234695,-5.905491 c 1.020929,-3.216661 -0.01037,-3.546717 -1.419386,-0.454259 -0.66471,1.458878 -0.774255,2.652507 -0.243436,2.652507 0.53082,0 1.279089,-0.989211 1.662822,-2.198248 z m 39.6985531,-11.566701 -2.259251,-3.172826 3.7759424,-2.22786 C 0.09402346,10.65363 1.823411,8.8640429 1.8603373,7.9020949 1.9048348,6.7429003 2.2655993,6.9975487 2.9301427,8.6572296 3.7923161,10.810485 4.1705492,10.964053 5.6295198,9.7532157 6.5627113,8.9787355 7.7193457,7.375231 8.1998182,6.1898718 9.0464804,4.1010987 9.0754743,4.1069784 9.1405448,6.3806338 9.178096,7.6927299 8.2740944,9.2262363 7.0892595,9.8603412 5.7163753,10.595087 4.9708349,12.078144 4.9708349,14.074396 c 0,1.982361 -0.8390995,3.668037 -2.3541057,4.729188 -3.17071275,2.220854 -3.5097952,2.136366 -6.1161661,-1.523945 z m 2.1149981,-0.0048 c -0.6235604,-1.165133 -1.3720697,-2.118424 -1.6633531,-2.118424 -0.2912834,0 -0.019415,0.953291 0.6041408,2.118424 0.6235604,1.165134 1.3720697,2.118425 1.66335307,2.118425 0.29128338,0 0.0194154,-0.953291 -0.60414077,-2.118425 z M 3.7364978,15.216088 C 4.2040044,12.021279 2.2693966,10.01616 0.46918268,11.829689 c -1.06159339,1.069446 -0.9566244,1.193941 0.52960615,0.628125 1.46210697,-0.556632 1.85362147,-0.141084 1.85362147,1.967403 0,1.470198 -0.4885616,2.915382 -1.0856926,3.21152 -0.5971309,0.296138 -0.4779695,0.417685 0.2648031,0.270105 0.7427726,-0.14758 1.510012,-1.35842 1.704977,-2.690754 z M -30.809341,8.8215823 c 1.379367,-2.2087204 3.928608,-3.6263596 4.855058,-2.69991 0.8268,0.8268 -3.08945,4.7978817 -4.731634,4.7978817 -1.163822,0 -1.18705,-0.394837 -0.123424,-2.0979717 z m 3.079703,-0.8148627 c 1.317523,-1.67997 1.280059,-1.7174344 -0.399911,-0.3999109 -1.764381,1.3837222 -2.325478,2.2535325 -1.453711,2.2535325 0.219952,0 1.054082,-0.8341297 1.853622,-1.8536216 z M -8.7989249,5.0938857 c 0,-0.8738501 0.4766456,-1.5888184 1.0592123,-1.5888184 0.5825668,0 1.0592123,0.7149683 1.0592123,1.5888184 0,0.8738502 -0.4766455,1.5888185 -1.0592123,1.5888185 -0.5825667,0 -1.0592123,-0.7149683 -1.0592123,-1.5888185 z m 4.2368492,-0.2570676 c 0,-1.1723648 -0.7149683,-2.7249445 -1.5888184,-3.4501755 -0.8738502,-0.72523102 -1.5888185,-2.04908225 -1.5888185,-2.9418902 0,-1.410963 0.2533626,-1.3939986 1.937025,0.1296942 1.0653631,0.96414165 2.7336225,1.75298368 3.707243,1.75298368 2.28987397,0 2.23085996,0.66906947 -0.3482065,3.94782102 -1.9367464,2.462174 -2.1184246,2.5103353 -2.1184246,0.5615668 z M -1.914045,2.4458549 c 0.3600464,-0.5825667 0.1498532,-1.0592123 -0.4670946,-1.0592123 -0.6169477,0 -1.1217238,0.4766456 -1.1217238,1.0592123 0,0.5825668 0.2101922,1.0592124 0.4670946,1.0592124 0.2569024,0 0.7616775,-0.4766456 1.1217238,-1.0592124 z"
         style="fill:#007b01;stroke-width:1.05921" />
      <path
         id="path92098"
         d="m 109.31797,95.156295 c 8.09231,-16.124093 11.91737,-35.652187 8.60492,-43.930787 -2.16683,-5.415447 -2.17082,-6.41116 -0.0257,-6.41116 1.43208,0 1.5944,-0.815463 1.00149,-5.031259 C 115.04797,12.402718 99.872687,-11.796929 76.930328,-27.142823 67.629046,-33.364347 54.679689,-39.097887 46.80972,-40.479217 l -4.236849,-0.743647 4.766456,3.225021 c 2.62155,1.773761 6.146799,4.6674 7.833891,6.430308 2.391945,2.499433 3.481673,2.983594 4.948471,2.198586 1.614959,-0.864299 2.141949,-0.221093 3.725567,4.547126 1.014482,3.054604 3.196639,7.751446 4.849233,10.437429 1.652593,2.685981 3.001786,5.5458542 2.998195,6.3552735 -0.0032,0.8094183 -0.680777,0.1792367 -1.504854,-1.4004037 -3.772056,-7.2304428 -5.473522,-9.2315538 -10.192694,-11.9876968 -4.477227,-2.614846 -4.912849,-3.18287 -3.824064,-4.986367 1.055262,-1.747956 0.705298,-2.486622 -2.478472,-5.231217 -2.038983,-1.757723 -5.486719,-4.399635 -7.661632,-5.870915 -3.826669,-2.58866 -4.071305,-2.619573 -7.574565,-0.957168 -1.991096,0.944838 -4.672259,1.717887 -5.958153,1.717887 -1.890154,0 -2.226962,0.456491 -1.758399,2.383228 0.31877,1.310775 0.835803,5.481423 1.148981,9.268107 0.445674,5.388876 0.357791,6.079339 -0.404429,3.177637 -0.535612,-2.038983 -1.319948,-6.09047 -1.742976,-9.003304 l -0.769136,-5.296062 -1.029226,5.296062 c -0.566075,2.912834 -1.423497,5.553105 -1.905385,5.867269 -0.481879,0.314165 -0.992758,2.101585 -1.135285,3.972046 -0.142517,1.870461 -0.676286,3.400839 -1.186149,3.400839 -1.057835,0 0.120687,-8.455003 1.402599,-10.062517 0.46457,-0.582567 1.178691,-2.846633 1.586933,-5.031259 l 0.742274,-3.972046 h -4.939689 -4.939688 l 0.320156,-5.560865 0.320158,-5.560865 6.050241,-0.316461 c 6.843126,-0.357934 13.720242,1.172437 16.139292,3.59149 0.896623,0.896626 4.612075,2.355721 8.25656,3.242435 9.835157,2.392922 26.739073,11.014508 35.754675,18.236127 18.384503,14.7262451 31.281593,36.794615 35.009813,59.905746 1.10288,6.836627 1.60229,8.021742 3.38048,8.021742 1.56853,0 1.89903,0.460102 1.33145,1.853622 -2.15274,5.2855 -3.57309,11.222947 -4.6475,19.427881 -0.65542,5.005308 -2.31853,12.393314 -3.69579,16.417791 -2.77411,8.106195 -9.20091,21.616598 -10.28286,21.616598 -0.38126,0 1.33352,-4.03828 3.81062,-8.973945 z M 38.535853,-40.19813 c 2.420798,-2.420796 1.048345,-4.72164 -3.583718,-6.007921 -4.644349,-1.289692 -14.814746,-1.510999 -15.471763,-0.336664 -0.244452,0.436925 -0.213682,2.639662 0.06837,4.894972 l 0.512832,4.100562 8.397806,-0.486141 c 5.731292,-0.331779 8.930823,-1.019159 10.076467,-2.164808 z M -4.4784541,5.0056184 c 0.050821,-1.233922 0.3018131,-1.4849098 0.6399412,-0.6399411 0.3059757,0.7646189 0.268345,1.6781895 -0.083625,2.0301573 C -4.2741055,6.7478013 -4.5244493,6.122204 -4.4784572,5.0056184 Z"
         style="fill:#111210;stroke-width:1.05921" />
    </g>
  </g>
</svg>
